<?xml version="1.0" standalone="no"?>
<svg xmlns:xlink="http://www.w3.org/1999/xlink" id="wave" style="transform:rotate(0deg); transition: 0.3s" viewBox="0 0 1440 490" version="1.1" xmlns="http://www.w3.org/2000/svg"><defs><linearGradient id="sw-gradient-0" x1="0" x2="0" y1="1" y2="0"><stop stop-color="rgba(32.582, 28.991, 164.299, 1)" offset="0%"/><stop stop-color="rgba(11, 78.923, 255, 1)" offset="100%"/></linearGradient></defs><path style="transform:translate(0, 0px); opacity:1" fill="url(#sw-gradient-0)" d="M0,49L48,40.8C96,33,192,16,288,40.8C384,65,480,131,576,155.2C672,180,768,163,864,179.7C960,196,1056,245,1152,294C1248,343,1344,392,1440,392C1536,392,1632,343,1728,269.5C1824,196,1920,98,2016,57.2C2112,16,2208,33,2304,32.7C2400,33,2496,16,2592,65.3C2688,114,2784,229,2880,294C2976,359,3072,376,3168,343C3264,310,3360,229,3456,179.7C3552,131,3648,114,3744,122.5C3840,131,3936,163,4032,204.2C4128,245,4224,294,4320,326.7C4416,359,4512,376,4608,375.7C4704,376,4800,359,4896,343C4992,327,5088,310,5184,277.7C5280,245,5376,196,5472,220.5C5568,245,5664,343,5760,318.5C5856,294,5952,147,6048,138.8C6144,131,6240,261,6336,326.7C6432,392,6528,392,6624,383.8C6720,376,6816,359,6864,351.2L6912,343L6912,490L6864,490C6816,490,6720,490,6624,490C6528,490,6432,490,6336,490C6240,490,6144,490,6048,490C5952,490,5856,490,5760,490C5664,490,5568,490,5472,490C5376,490,5280,490,5184,490C5088,490,4992,490,4896,490C4800,490,4704,490,4608,490C4512,490,4416,490,4320,490C4224,490,4128,490,4032,490C3936,490,3840,490,3744,490C3648,490,3552,490,3456,490C3360,490,3264,490,3168,490C3072,490,2976,490,2880,490C2784,490,2688,490,2592,490C2496,490,2400,490,2304,490C2208,490,2112,490,2016,490C1920,490,1824,490,1728,490C1632,490,1536,490,1440,490C1344,490,1248,490,1152,490C1056,490,960,490,864,490C768,490,672,490,576,490C480,490,384,490,288,490C192,490,96,490,48,490L0,490Z"/><defs><linearGradient id="sw-gradient-1" x1="0" x2="0" y1="1" y2="0"><stop stop-color="rgba(62, 81.725, 243, 1)" offset="0%"/><stop stop-color="rgba(10.976, 31.763, 95.995, 1)" offset="100%"/></linearGradient></defs><path style="transform:translate(0, 50px); opacity:0.9" fill="url(#sw-gradient-1)" d="M0,0L48,8.2C96,16,192,33,288,65.3C384,98,480,147,576,147C672,147,768,98,864,114.3C960,131,1056,212,1152,204.2C1248,196,1344,98,1440,114.3C1536,131,1632,261,1728,326.7C1824,392,1920,392,2016,400.2C2112,408,2208,425,2304,400.2C2400,376,2496,310,2592,294C2688,278,2784,310,2880,285.8C2976,261,3072,180,3168,155.2C3264,131,3360,163,3456,171.5C3552,180,3648,163,3744,130.7C3840,98,3936,49,4032,57.2C4128,65,4224,131,4320,155.2C4416,180,4512,163,4608,155.2C4704,147,4800,147,4896,155.2C4992,163,5088,180,5184,204.2C5280,229,5376,261,5472,302.2C5568,343,5664,392,5760,351.2C5856,310,5952,180,6048,122.5C6144,65,6240,82,6336,73.5C6432,65,6528,33,6624,16.3C6720,0,6816,0,6864,0L6912,0L6912,490L6864,490C6816,490,6720,490,6624,490C6528,490,6432,490,6336,490C6240,490,6144,490,6048,490C5952,490,5856,490,5760,490C5664,490,5568,490,5472,490C5376,490,5280,490,5184,490C5088,490,4992,490,4896,490C4800,490,4704,490,4608,490C4512,490,4416,490,4320,490C4224,490,4128,490,4032,490C3936,490,3840,490,3744,490C3648,490,3552,490,3456,490C3360,490,3264,490,3168,490C3072,490,2976,490,2880,490C2784,490,2688,490,2592,490C2496,490,2400,490,2304,490C2208,490,2112,490,2016,490C1920,490,1824,490,1728,490C1632,490,1536,490,1440,490C1344,490,1248,490,1152,490C1056,490,960,490,864,490C768,490,672,490,576,490C480,490,384,490,288,490C192,490,96,490,48,490L0,490Z"/><defs><linearGradient id="sw-gradient-2" x1="0" x2="0" y1="1" y2="0"><stop stop-color="rgba(62, 136.914, 243, 1)" offset="0%"/><stop stop-color="rgba(8.184, 77.51, 175.682, 1)" offset="100%"/></linearGradient></defs><path style="transform:translate(0, 100px); opacity:0.8" fill="url(#sw-gradient-2)" d="M0,147L48,171.5C96,196,192,245,288,294C384,343,480,392,576,359.3C672,327,768,212,864,147C960,82,1056,65,1152,81.7C1248,98,1344,147,1440,204.2C1536,261,1632,327,1728,318.5C1824,310,1920,229,2016,220.5C2112,212,2208,278,2304,261.3C2400,245,2496,147,2592,155.2C2688,163,2784,278,2880,334.8C2976,392,3072,392,3168,383.8C3264,376,3360,359,3456,359.3C3552,359,3648,376,3744,334.8C3840,294,3936,196,4032,155.2C4128,114,4224,131,4320,171.5C4416,212,4512,278,4608,261.3C4704,245,4800,147,4896,98C4992,49,5088,49,5184,89.8C5280,131,5376,212,5472,236.8C5568,261,5664,229,5760,220.5C5856,212,5952,229,6048,253.2C6144,278,6240,310,6336,318.5C6432,327,6528,310,6624,269.5C6720,229,6816,163,6864,130.7L6912,98L6912,490L6864,490C6816,490,6720,490,6624,490C6528,490,6432,490,6336,490C6240,490,6144,490,6048,490C5952,490,5856,490,5760,490C5664,490,5568,490,5472,490C5376,490,5280,490,5184,490C5088,490,4992,490,4896,490C4800,490,4704,490,4608,490C4512,490,4416,490,4320,490C4224,490,4128,490,4032,490C3936,490,3840,490,3744,490C3648,490,3552,490,3456,490C3360,490,3264,490,3168,490C3072,490,2976,490,2880,490C2784,490,2688,490,2592,490C2496,490,2400,490,2304,490C2208,490,2112,490,2016,490C1920,490,1824,490,1728,490C1632,490,1536,490,1440,490C1344,490,1248,490,1152,490C1056,490,960,490,864,490C768,490,672,490,576,490C480,490,384,490,288,490C192,490,96,490,48,490L0,490Z"/><defs><linearGradient id="sw-gradient-3" x1="0" x2="0" y1="1" y2="0"><stop stop-color="rgba(62, 143.046, 243, 1)" offset="0%"/><stop stop-color="rgba(76.673, 168.606, 255, 1)" offset="100%"/></linearGradient></defs><path style="transform:translate(0, 150px); opacity:0.7" fill="url(#sw-gradient-3)" d="M0,441L48,400.2C96,359,192,278,288,253.2C384,229,480,261,576,228.7C672,196,768,98,864,81.7C960,65,1056,131,1152,171.5C1248,212,1344,229,1440,212.3C1536,196,1632,147,1728,163.3C1824,180,1920,261,2016,269.5C2112,278,2208,212,2304,196C2400,180,2496,212,2592,245C2688,278,2784,310,2880,302.2C2976,294,3072,245,3168,253.2C3264,261,3360,327,3456,334.8C3552,343,3648,294,3744,236.8C3840,180,3936,114,4032,130.7C4128,147,4224,245,4320,269.5C4416,294,4512,245,4608,228.7C4704,212,4800,229,4896,236.8C4992,245,5088,245,5184,277.7C5280,310,5376,376,5472,383.8C5568,392,5664,343,5760,302.2C5856,261,5952,229,6048,196C6144,163,6240,131,6336,155.2C6432,180,6528,261,6624,277.7C6720,294,6816,245,6864,220.5L6912,196L6912,490L6864,490C6816,490,6720,490,6624,490C6528,490,6432,490,6336,490C6240,490,6144,490,6048,490C5952,490,5856,490,5760,490C5664,490,5568,490,5472,490C5376,490,5280,490,5184,490C5088,490,4992,490,4896,490C4800,490,4704,490,4608,490C4512,490,4416,490,4320,490C4224,490,4128,490,4032,490C3936,490,3840,490,3744,490C3648,490,3552,490,3456,490C3360,490,3264,490,3168,490C3072,490,2976,490,2880,490C2784,490,2688,490,2592,490C2496,490,2400,490,2304,490C2208,490,2112,490,2016,490C1920,490,1824,490,1728,490C1632,490,1536,490,1440,490C1344,490,1248,490,1152,490C1056,490,960,490,864,490C768,490,672,490,576,490C480,490,384,490,288,490C192,490,96,490,48,490L0,490Z"/></svg>