<?xml version="1.0" standalone="no"?>
<svg xmlns:xlink="http://www.w3.org/1999/xlink" id="wave" style="transform:rotate(180deg); transition: 0.3s" viewBox="0 0 1440 490" version="1.1" xmlns="http://www.w3.org/2000/svg"><defs><linearGradient id="sw-gradient-0" x1="0" x2="0" y1="1" y2="0"><stop stop-color="rgba(40.696, 32.439, 134.7, 1)" offset="0%"/><stop stop-color="rgba(33.936, 27.685, 105.102, 1)" offset="100%"/></linearGradient></defs><path style="transform:translate(0, 0px); opacity:1" fill="url(#sw-gradient-0)" d="M0,245L80,212.3C160,180,320,114,480,73.5C640,33,800,16,960,24.5C1120,33,1280,65,1440,130.7C1600,196,1760,294,1920,343C2080,392,2240,392,2400,392C2560,392,2720,392,2880,343C3040,294,3200,196,3360,130.7C3520,65,3680,33,3840,16.3C4000,0,4160,0,4320,40.8C4480,82,4640,163,4800,179.7C4960,196,5120,147,5280,147C5440,147,5600,196,5760,228.7C5920,261,6080,278,6240,285.8C6400,294,6560,294,6720,318.5C6880,343,7040,392,7200,375.7C7360,359,7520,278,7680,220.5C7840,163,8000,131,8160,98C8320,65,8480,33,8640,32.7C8800,33,8960,65,9120,130.7C9280,196,9440,294,9600,277.7C9760,261,9920,131,10080,114.3C10240,98,10400,196,10560,253.2C10720,310,10880,327,11040,277.7C11200,229,11360,114,11440,57.2L11520,0L11520,490L11440,490C11360,490,11200,490,11040,490C10880,490,10720,490,10560,490C10400,490,10240,490,10080,490C9920,490,9760,490,9600,490C9440,490,9280,490,9120,490C8960,490,8800,490,8640,490C8480,490,8320,490,8160,490C8000,490,7840,490,7680,490C7520,490,7360,490,7200,490C7040,490,6880,490,6720,490C6560,490,6400,490,6240,490C6080,490,5920,490,5760,490C5600,490,5440,490,5280,490C5120,490,4960,490,4800,490C4640,490,4480,490,4320,490C4160,490,4000,490,3840,490C3680,490,3520,490,3360,490C3200,490,3040,490,2880,490C2720,490,2560,490,2400,490C2240,490,2080,490,1920,490C1760,490,1600,490,1440,490C1280,490,1120,490,960,490C800,490,640,490,480,490C320,490,160,490,80,490L0,490Z"/><defs><linearGradient id="sw-gradient-1" x1="0" x2="0" y1="1" y2="0"><stop stop-color="rgba(22.368, 18.7, 64.12, 1)" offset="0%"/><stop stop-color="rgba(25.119, 44.48, 91.441, 1)" offset="100%"/></linearGradient></defs><path style="transform:translate(0, 50px); opacity:0.9" fill="url(#sw-gradient-1)" d="M0,49L80,57.2C160,65,320,82,480,138.8C640,196,800,294,960,351.2C1120,408,1280,425,1440,383.8C1600,343,1760,245,1920,204.2C2080,163,2240,180,2400,179.7C2560,180,2720,163,2880,138.8C3040,114,3200,82,3360,57.2C3520,33,3680,16,3840,32.7C4000,49,4160,98,4320,163.3C4480,229,4640,310,4800,334.8C4960,359,5120,327,5280,302.2C5440,278,5600,261,5760,212.3C5920,163,6080,82,6240,73.5C6400,65,6560,131,6720,138.8C6880,147,7040,98,7200,98C7360,98,7520,147,7680,196C7840,245,8000,294,8160,285.8C8320,278,8480,212,8640,212.3C8800,212,8960,278,9120,302.2C9280,327,9440,310,9600,310.3C9760,310,9920,327,10080,318.5C10240,310,10400,278,10560,236.8C10720,196,10880,147,11040,106.2C11200,65,11360,33,11440,16.3L11520,0L11520,490L11440,490C11360,490,11200,490,11040,490C10880,490,10720,490,10560,490C10400,490,10240,490,10080,490C9920,490,9760,490,9600,490C9440,490,9280,490,9120,490C8960,490,8800,490,8640,490C8480,490,8320,490,8160,490C8000,490,7840,490,7680,490C7520,490,7360,490,7200,490C7040,490,6880,490,6720,490C6560,490,6400,490,6240,490C6080,490,5920,490,5760,490C5600,490,5440,490,5280,490C5120,490,4960,490,4800,490C4640,490,4480,490,4320,490C4160,490,4000,490,3840,490C3680,490,3520,490,3360,490C3200,490,3040,490,2880,490C2720,490,2560,490,2400,490C2240,490,2080,490,1920,490C1760,490,1600,490,1440,490C1280,490,1120,490,960,490C800,490,640,490,480,490C320,490,160,490,80,490L0,490Z"/><defs><linearGradient id="sw-gradient-2" x1="0" x2="0" y1="1" y2="0"><stop stop-color="rgba(18.239, 20.877, 66.397, 1)" offset="0%"/><stop stop-color="rgba(14.103, 15.766, 93.718, 1)" offset="100%"/></linearGradient></defs><path style="transform:translate(0, 100px); opacity:0.8" fill="url(#sw-gradient-2)" d="M0,196L80,220.5C160,245,320,294,480,277.7C640,261,800,180,960,187.8C1120,196,1280,294,1440,334.8C1600,376,1760,359,1920,326.7C2080,294,2240,245,2400,236.8C2560,229,2720,261,2880,269.5C3040,278,3200,261,3360,269.5C3520,278,3680,310,3840,334.8C4000,359,4160,376,4320,383.8C4480,392,4640,392,4800,400.2C4960,408,5120,425,5280,416.5C5440,408,5600,376,5760,334.8C5920,294,6080,245,6240,236.8C6400,229,6560,261,6720,245C6880,229,7040,163,7200,130.7C7360,98,7520,98,7680,147C7840,196,8000,294,8160,318.5C8320,343,8480,294,8640,302.2C8800,310,8960,376,9120,351.2C9280,327,9440,212,9600,163.3C9760,114,9920,131,10080,122.5C10240,114,10400,82,10560,106.2C10720,131,10880,212,11040,212.3C11200,212,11360,131,11440,89.8L11520,49L11520,490L11440,490C11360,490,11200,490,11040,490C10880,490,10720,490,10560,490C10400,490,10240,490,10080,490C9920,490,9760,490,9600,490C9440,490,9280,490,9120,490C8960,490,8800,490,8640,490C8480,490,8320,490,8160,490C8000,490,7840,490,7680,490C7520,490,7360,490,7200,490C7040,490,6880,490,6720,490C6560,490,6400,490,6240,490C6080,490,5920,490,5760,490C5600,490,5440,490,5280,490C5120,490,4960,490,4800,490C4640,490,4480,490,4320,490C4160,490,4000,490,3840,490C3680,490,3520,490,3360,490C3200,490,3040,490,2880,490C2720,490,2560,490,2400,490C2240,490,2080,490,1920,490C1760,490,1600,490,1440,490C1280,490,1120,490,960,490C800,490,640,490,480,490C320,490,160,490,80,490L0,490Z"/><defs><linearGradient id="sw-gradient-3" x1="0" x2="0" y1="1" y2="0"><stop stop-color="rgba(53.456, 26.354, 134.7, 1)" offset="0%"/><stop stop-color="rgba(0, 32.676, 111.932, 1)" offset="100%"/></linearGradient></defs><path style="transform:translate(0, 150px); opacity:0.7" fill="url(#sw-gradient-3)" d="M0,441L80,416.5C160,392,320,343,480,310.3C640,278,800,261,960,253.2C1120,245,1280,245,1440,245C1600,245,1760,245,1920,228.7C2080,212,2240,180,2400,138.8C2560,98,2720,49,2880,73.5C3040,98,3200,196,3360,204.2C3520,212,3680,131,3840,130.7C4000,131,4160,212,4320,236.8C4480,261,4640,229,4800,179.7C4960,131,5120,65,5280,65.3C5440,65,5600,131,5760,147C5920,163,6080,131,6240,98C6400,65,6560,33,6720,89.8C6880,147,7040,294,7200,343C7360,392,7520,343,7680,334.8C7840,327,8000,359,8160,318.5C8320,278,8480,163,8640,138.8C8800,114,8960,180,9120,204.2C9280,229,9440,212,9600,171.5C9760,131,9920,65,10080,89.8C10240,114,10400,229,10560,253.2C10720,278,10880,212,11040,187.8C11200,163,11360,180,11440,187.8L11520,196L11520,490L11440,490C11360,490,11200,490,11040,490C10880,490,10720,490,10560,490C10400,490,10240,490,10080,490C9920,490,9760,490,9600,490C9440,490,9280,490,9120,490C8960,490,8800,490,8640,490C8480,490,8320,490,8160,490C8000,490,7840,490,7680,490C7520,490,7360,490,7200,490C7040,490,6880,490,6720,490C6560,490,6400,490,6240,490C6080,490,5920,490,5760,490C5600,490,5440,490,5280,490C5120,490,4960,490,4800,490C4640,490,4480,490,4320,490C4160,490,4000,490,3840,490C3680,490,3520,490,3360,490C3200,490,3040,490,2880,490C2720,490,2560,490,2400,490C2240,490,2080,490,1920,490C1760,490,1600,490,1440,490C1280,490,1120,490,960,490C800,490,640,490,480,490C320,490,160,490,80,490L0,490Z"/></svg>