<?xml version="1.0" encoding="utf-8"?>
<!-- Generator: Adobe Illustrator 16.0.0, SVG Export Plug-In . SVG Version: 6.00 Build 0)  -->
<!DOCTYPE svg PUBLIC "-//W3C//DTD SVG 1.1//EN" "http://www.w3.org/Graphics/SVG/1.1/DTD/svg11.dtd">
<svg version="1.1" id="Layer_1" xmlns="http://www.w3.org/2000/svg" xmlns:xlink="http://www.w3.org/1999/xlink" x="0px" y="0px"
	 width="1024px" height="1098.727px" viewBox="0 0 1024 1098.727" enable-background="new 0 0 1024 1098.727" xml:space="preserve">
<rect x="-0.002" fill="#FFFFFF" width="1024.004" height="1024"/>
<radialGradient id="SVGID_1_" cx="503.1587" cy="780.8896" r="322.0496" gradientTransform="matrix(1.0904 0 0 0.0718 -41.4971 724.7874)" gradientUnits="userSpaceOnUse">
	<stop  offset="0" style="stop-color:#000000"/>
	<stop  offset="0.8495" style="stop-color:#FFFFFF"/>
</radialGradient>
<ellipse opacity="0.4" fill="url(#SVGID_1_)" cx="507.147" cy="780.89" rx="398.962" ry="34.722"/>
<g>
	<g>
		<path fill="#7C828B" d="M444.149,845.511h-4c0-22.342,18.176-40.519,40.518-40.519h195.855v4H480.667
			C460.531,808.992,444.149,825.374,444.149,845.511z"/>
	</g>
	<g>
		<path fill="#7C828B" d="M684.416,808.992H512.799v-4h171.617c16.615,0,30.132-13.517,30.132-30.132s-13.517-30.132-30.132-30.132
			H512.799v-4h171.617c18.82,0,34.132,15.312,34.132,34.132S703.236,808.992,684.416,808.992z"/>
	</g>
</g>
<g>
	<rect x="0.001" y="1024.002" fill="#132028" width="1024.003" height="74.725"/>
	<g>
		<g>
			<path fill="#FFFFFF" d="M334.035,1050.005h3.956c3.112,0,5.677,0.819,7.691,2.458c2.029,1.621,3.042,3.957,3.042,7.001
				c0,3.135-1.002,5.525-3.021,7.182c-2.007,1.659-4.605,2.486-7.786,2.486h-3.883V1050.005z M336.421,1066.957h0.832
				c1.241,0,2.406-0.127,3.509-0.376c1.094-0.242,2.059-0.661,2.879-1.245c0.822-0.58,1.478-1.344,1.964-2.279
				c0.494-0.941,0.737-2.105,0.737-3.491c0-1.366-0.243-2.531-0.724-3.515c-0.48-0.97-1.153-1.728-2.018-2.275
				c-0.863-0.55-1.812-0.958-2.857-1.216c-1.04-0.249-2.197-0.385-3.49-0.385h-0.832V1066.957z"/>
			<path fill="#FFFFFF" d="M352.226,1063.576c0.032,1.059,0.375,1.984,1.017,2.769c0.661,0.775,1.51,1.162,2.561,1.162
				c0.833,0,1.512-0.183,2.046-0.567c0.532-0.382,1.04-0.964,1.511-1.741l1.926,1.095c-0.557,1.015-1.32,1.807-2.296,2.383
				c-0.97,0.571-2.044,0.868-3.211,0.868c-1.772,0-3.197-0.595-4.259-1.776c-1.053-1.206-1.574-2.689-1.574-4.467
				c0-1.871,0.496-3.422,1.495-4.627c0.983-1.182,2.407-1.772,4.29-1.772c1.826,0,3.203,0.591,4.138,1.772
				c0.945,1.184,1.418,2.697,1.418,4.55v0.353H352.226z M359.006,1061.849c-0.139-0.913-0.48-1.642-1.053-2.168
				c-0.571-0.528-1.308-0.81-2.222-0.81c-0.44,0-0.851,0.077-1.23,0.226c-0.385,0.138-0.718,0.353-1.022,0.614
				c-0.287,0.279-0.534,0.604-0.729,0.961c-0.196,0.362-0.325,0.764-0.391,1.177H359.006z"/>
			<path fill="#FFFFFF" d="M368.012,1059.981c-0.345-0.7-0.846-1.044-1.518-1.044c-0.319,0-0.611,0.107-0.867,0.338
				c-0.255,0.226-0.378,0.513-0.378,0.828c0,0.306,0.095,0.562,0.291,0.766c0.195,0.215,0.459,0.416,0.794,0.605
				c0.224,0.097,0.392,0.181,0.512,0.232c0.115,0.063,0.313,0.15,0.584,0.269c0.135,0.064,0.255,0.127,0.358,0.154
				c0.095,0.037,0.172,0.059,0.223,0.104c0.845,0.384,1.515,0.84,2.005,1.343c0.492,0.511,0.735,1.184,0.735,2.036
				c0,1.117-0.404,2.052-1.217,2.811c-0.794,0.751-1.746,1.121-2.87,1.121c-0.453,0-0.896-0.066-1.314-0.193
				c-0.427-0.125-0.823-0.306-1.183-0.535c-0.365-0.236-0.681-0.503-0.968-0.835c-0.276-0.331-0.495-0.701-0.64-1.111l1.954-0.879
				c0.551,1.012,1.274,1.517,2.15,1.517c0.36,0,0.688-0.094,0.995-0.285c0.302-0.193,0.524-0.442,0.671-0.745
				c0.143-0.295,0.173-0.61,0.088-0.957c-0.084-0.35-0.351-0.683-0.788-0.979l-2.235-1.194c-0.391-0.201-0.723-0.395-1.013-0.602
				c-0.286-0.212-0.526-0.43-0.71-0.654c-0.186-0.232-0.327-0.481-0.416-0.761c-0.091-0.277-0.142-0.602-0.142-0.982
				c0-0.962,0.335-1.764,1.018-2.432c0.67-0.679,1.504-1.014,2.485-1.014c1.485,0,2.57,0.696,3.248,2.081L368.012,1059.981z"/>
			<path fill="#FFFFFF" d="M376.211,1051.826c0,0.426-0.152,0.785-0.459,1.099c-0.303,0.301-0.676,0.438-1.116,0.438
				c-0.442,0-0.81-0.138-1.116-0.438c-0.303-0.313-0.457-0.673-0.457-1.099c0-0.439,0.153-0.812,0.457-1.136
				c0.306-0.315,0.673-0.46,1.116-0.46c0.44,0,0.813,0.145,1.116,0.46C376.059,1051.015,376.211,1051.387,376.211,1051.826z
				 M375.773,1069.132h-2.286v-11.878h2.286V1069.132z"/>
			<path fill="#FFFFFF" d="M390.551,1068.91c0,2.23-0.43,3.955-1.274,5.194c-0.84,1.223-2.354,1.828-4.515,1.828
				c-1.672,0-3.046-0.481-4.111-1.448c-1.048-0.964-1.597-2.272-1.625-3.929h2.278c0,1.062,0.334,1.88,0.981,2.473
				c0.648,0.589,1.508,0.876,2.58,0.876c1.299,0,2.192-0.384,2.675-1.143c0.478-0.765,0.72-1.841,0.72-3.218v-2.265h-0.047
				c-0.476,0.713-1.062,1.268-1.764,1.663c-0.704,0.403-1.462,0.602-2.272,0.602c-1.762,0-3.147-0.618-4.165-1.854
				c-1.012-1.239-1.52-2.765-1.52-4.569c0-1.716,0.514-3.169,1.545-4.369c1.039-1.229,2.378-1.85,4.035-1.85
				c1.747,0,3.124,0.799,4.14,2.389h0.047v-2.036h2.29V1068.91z M384.533,1067.507c1.2,0,2.139-0.407,2.815-1.245
				c0.696-0.838,1.04-1.867,1.04-3.068c0-1.178-0.344-2.191-1.04-3.022c-0.676-0.823-1.615-1.233-2.815-1.233
				c-1.133,0-2.044,0.413-2.743,1.266c-0.671,0.829-1.015,1.819-1.015,2.99c0,1.201,0.343,2.226,1.015,3.045
				C382.488,1067.086,383.399,1067.507,384.533,1067.507z"/>
			<path fill="#FFFFFF" d="M395.807,1058.852h0.04c0.343-0.621,0.838-1.108,1.479-1.441c0.637-0.34,1.346-0.509,2.104-0.509
				c0.778,0,1.436,0.122,1.98,0.353c0.544,0.238,0.976,0.577,1.309,1.018c0.328,0.44,0.565,0.982,0.704,1.607
				c0.151,0.642,0.216,1.359,0.216,2.176v7.077h-2.277v-6.796c0-1.175-0.174-2.021-0.511-2.566
				c-0.338-0.561-1.039-0.832-2.104-0.832c-0.395,0-0.722,0.034-0.995,0.107c-0.271,0.077-0.503,0.189-0.708,0.327
				c-0.204,0.147-0.371,0.321-0.51,0.494c-0.13,0.187-0.261,0.393-0.374,0.616c-0.052,0.113-0.104,0.266-0.143,0.453
				c-0.043,0.181-0.078,0.376-0.112,0.576c-0.034,0.19-0.066,0.382-0.081,0.578c-0.013,0.201-0.019,0.348-0.019,0.47v1.121v5.451
				h-2.289v-11.878h2.289V1058.852z"/>
			<path fill="#FFFFFF" d="M413.945,1047.105h2.284v12.129h0.048c1.053-1.554,2.429-2.333,4.14-2.333c1.66,0,3.001,0.62,4.037,1.85
				c1.03,1.2,1.548,2.653,1.548,4.369c0,1.805-0.518,3.33-1.524,4.569c-1.021,1.236-2.4,1.854-4.159,1.854
				c-0.81,0-1.571-0.198-2.276-0.602c-0.7-0.396-1.289-0.95-1.765-1.663h-0.048v1.853h-2.284V1047.105z M419.853,1067.507
				c1.209,0,2.145-0.407,2.826-1.245c0.693-0.838,1.032-1.867,1.032-3.068c0-1.178-0.339-2.191-1.032-3.022
				c-0.681-0.823-1.617-1.233-2.826-1.233c-1.133,0-2.044,0.413-2.738,1.266c-0.678,0.829-1.013,1.819-1.013,2.99
				c0,1.201,0.335,2.226,1.013,3.045C417.809,1067.086,418.72,1067.507,419.853,1067.507z"/>
			<path fill="#FFFFFF" d="M426.329,1057.254h2.665l4.007,7.544l3.728-7.544h2.569l-9.619,18.679h-2.591l4.671-8.833
				L426.329,1057.254z"/>
			<path fill="#FFFFFF" d="M450.817,1064.332l-2.183,4.8h-2.565l9.139-19.945l9.129,19.945h-2.559l-2.176-4.8H450.817z
				 M455.208,1054.418l-3.408,7.736h6.805L455.208,1054.418z"/>
			<path fill="#FFFFFF" d="M468.075,1069.132h-2.282v-22.026h2.282V1069.132z"/>
			<path fill="#FFFFFF" d="M473.708,1069.132h-2.285v-22.026h2.285V1069.132z"/>
			<path fill="#FFFFFF" d="M482.385,1060.053v1.899h-5.557v-1.899H482.385z"/>
			<path fill="#FFFFFF" d="M491.259,1049.418c-0.706-0.322-1.21-0.482-1.514-0.482c-0.495,0-0.846,0.148-1.063,0.466
				c-0.224,0.312-0.375,0.692-0.46,1.156c-0.05,0.335-0.075,0.604-0.095,0.799c-0.003,0.199-0.003,0.462-0.003,0.806v5.092h3.135
				v2.131h-3.135v9.747h-2.292v-9.747h-1.036v-2.131h1.036v-5.779c0-3.115,1.281-4.677,3.841-4.677c0.556,0,1.086,0.111,1.586,0.308
				V1049.418z"/>
			<path fill="#FFFFFF" d="M494.789,1059.181h0.076c0.29-0.705,0.705-1.266,1.273-1.669c0.563-0.404,1.221-0.61,1.98-0.61
				c0.632,0,1.248,0.193,1.886,0.586l-1.044,2.078c-0.375-0.331-0.842-0.479-1.396-0.479c-1.177,0-1.949,0.475-2.339,1.42
				c-0.169,0.44-0.289,0.877-0.344,1.307c-0.054,0.425-0.092,0.932-0.092,1.488v5.831h-2.275v-11.878h2.275V1059.181z"/>
			<path fill="#FFFFFF" d="M502.641,1063.576c0.027,1.059,0.371,1.984,1.018,2.769c0.655,0.775,1.503,1.162,2.556,1.162
				c0.819,0,1.514-0.183,2.043-0.567c0.533-0.382,1.038-0.964,1.505-1.741l1.927,1.095c-0.551,1.015-1.316,1.807-2.289,2.383
				c-0.973,0.571-2.047,0.868-3.213,0.868c-1.769,0-3.195-0.595-4.254-1.776c-1.053-1.206-1.577-2.689-1.577-4.467
				c0-1.871,0.5-3.422,1.493-4.627c0.981-1.182,2.407-1.772,4.288-1.772c1.827,0,3.21,0.591,4.146,1.772
				c0.938,1.184,1.406,2.697,1.406,4.55v0.353H502.641z M509.414,1061.849c-0.138-0.913-0.488-1.642-1.053-2.168
				c-0.565-0.528-1.304-0.81-2.224-0.81c-0.44,0-0.847,0.077-1.231,0.226c-0.375,0.138-0.72,0.353-1.008,0.614
				c-0.302,0.279-0.546,0.604-0.75,0.961c-0.188,0.362-0.319,0.764-0.381,1.177H509.414z"/>
			<path fill="#FFFFFF" d="M515.031,1063.576c0.027,1.059,0.364,1.984,1.007,2.769c0.654,0.775,1.515,1.162,2.562,1.162
				c0.831,0,1.515-0.183,2.041-0.567c0.537-0.382,1.035-0.964,1.515-1.741l1.923,1.095c-0.548,1.015-1.309,1.807-2.293,2.383
				c-0.978,0.571-2.043,0.868-3.212,0.868c-1.782,0-3.197-0.595-4.27-1.776c-1.041-1.206-1.563-2.689-1.563-4.467
				c0-1.871,0.493-3.422,1.5-4.627c0.976-1.182,2.41-1.772,4.286-1.772c1.819,0,3.203,0.591,4.129,1.772
				c0.956,1.184,1.423,2.697,1.423,4.55v0.353H515.031z M521.801,1061.849c-0.132-0.913-0.49-1.642-1.063-2.168
				c-0.562-0.528-1.298-0.81-2.211-0.81c-0.446,0-0.851,0.077-1.236,0.226c-0.379,0.138-0.712,0.353-1.008,0.614
				c-0.302,0.279-0.552,0.604-0.736,0.961c-0.198,0.362-0.33,0.764-0.398,1.177H521.801z"/>
			<path fill="#FFFFFF" d="M531.47,1060.053v1.899h-5.565v-1.899H531.47z"/>
			<path fill="#FFFFFF" d="M543.317,1067.279h-0.054c-0.471,0.713-1.061,1.268-1.762,1.663c-0.704,0.403-1.465,0.602-2.269,0.602
				c-1.764,0-3.149-0.618-4.159-1.854c-1.018-1.239-1.535-2.765-1.535-4.569c0-1.716,0.52-3.169,1.555-4.369
				c1.034-1.229,2.376-1.85,4.035-1.85c1.708,0,3.087,0.779,4.135,2.333h0.054v-12.129h2.279v22.026h-2.279V1067.279z
				 M539.586,1067.507c1.197,0,2.145-0.407,2.814-1.245c0.694-0.838,1.046-1.867,1.046-3.068c0-1.178-0.352-2.191-1.046-3.022
				c-0.67-0.823-1.617-1.233-2.814-1.233c-1.136,0-2.049,0.413-2.739,1.266c-0.677,0.829-1.016,1.819-1.016,2.99
				c0,1.201,0.339,2.226,1.016,3.045C537.537,1067.086,538.45,1067.507,539.586,1067.507z"/>
			<path fill="#FFFFFF" d="M549.331,1058.728c1.237-1.216,2.743-1.826,4.524-1.826c1.772,0,3.268,0.61,4.477,1.826
				c1.24,1.211,1.854,2.728,1.854,4.496c0,1.771-0.614,3.268-1.854,4.499c-1.209,1.211-2.704,1.821-4.477,1.821
				c-1.781,0-3.287-0.61-4.524-1.821c-1.219-1.231-1.83-2.729-1.83-4.499C547.501,1061.455,548.112,1059.938,549.331,1058.728z
				 M549.784,1063.224c0,1.094,0.41,2.068,1.203,2.906c0.773,0.827,1.737,1.228,2.868,1.228c1.106,0,2.07-0.4,2.859-1.228
				c0.799-0.838,1.192-1.813,1.192-2.906c0-1.119-0.394-2.101-1.192-2.92c-0.789-0.815-1.753-1.218-2.859-1.218
				c-1.131,0-2.095,0.402-2.868,1.218C550.194,1061.123,549.784,1062.104,549.784,1063.224z"/>
			<path fill="#FFFFFF" d="M566.339,1064.826l3.491-8.228l3.48,8.228l3.458-7.572h2.58l-6.038,12.29l-3.48-7.942l-3.491,7.942
				l-6.043-12.29h2.587L566.339,1064.826z"/>
			<path fill="#FFFFFF" d="M582.782,1058.852h0.049c0.336-0.621,0.825-1.108,1.468-1.441c0.646-0.34,1.349-0.509,2.105-0.509
				c0.781,0,1.447,0.122,1.984,0.353c0.54,0.238,0.974,0.577,1.309,1.018c0.327,0.44,0.563,0.982,0.7,1.607
				c0.146,0.642,0.218,1.359,0.218,2.176v7.077h-2.282v-6.796c0-1.175-0.156-2.021-0.505-2.566
				c-0.339-0.561-1.035-0.832-2.113-0.832c-0.381,0-0.711,0.034-0.986,0.107c-0.264,0.077-0.505,0.189-0.711,0.327
				c-0.2,0.147-0.37,0.321-0.505,0.494c-0.14,0.187-0.265,0.393-0.376,0.616c-0.05,0.113-0.102,0.266-0.143,0.453
				c-0.045,0.181-0.086,0.376-0.113,0.576c-0.037,0.19-0.054,0.382-0.084,0.578c-0.004,0.201-0.015,0.348-0.015,0.47v1.121v5.451
				h-2.284v-11.878h2.284V1058.852z"/>
			<path fill="#FFFFFF" d="M596.153,1069.132h-2.288v-22.026h2.288V1069.132z"/>
			<path fill="#FFFFFF" d="M600.16,1058.728c1.225-1.216,2.74-1.826,4.521-1.826c1.774,0,3.264,0.61,4.494,1.826
				c1.229,1.211,1.84,2.728,1.84,4.496c0,1.771-0.61,3.268-1.84,4.499c-1.23,1.211-2.72,1.821-4.494,1.821
				c-1.781,0-3.297-0.61-4.521-1.821c-1.225-1.231-1.829-2.729-1.829-4.499C598.331,1061.455,598.936,1059.938,600.16,1058.728z
				 M600.619,1063.224c0,1.094,0.399,2.068,1.188,2.906c0.779,0.827,1.738,1.228,2.874,1.228c1.109,0,2.069-0.4,2.87-1.228
				c0.788-0.838,1.185-1.813,1.185-2.906c0-1.119-0.396-2.101-1.185-2.92c-0.801-0.815-1.761-1.218-2.87-1.218
				c-1.136,0-2.095,0.402-2.874,1.218C601.019,1061.123,600.619,1062.104,600.619,1063.224z"/>
			<path fill="#FFFFFF" d="M624.246,1069.132h-2.288v-1.853h-0.047c-1.017,1.502-2.365,2.265-4.039,2.265
				c-1.742,0-3.13-0.618-4.161-1.854c-1.016-1.239-1.523-2.765-1.523-4.569c0-1.716,0.512-3.169,1.55-4.369
				c1.03-1.229,2.387-1.85,4.054-1.85c1.699,0,3.07,0.779,4.12,2.333h0.047v-1.98h2.288V1069.132z M618.229,1067.507
				c1.21,0,2.136-0.407,2.817-1.245c0.691-0.838,1.039-1.867,1.039-3.068c0-1.178-0.348-2.191-1.039-3.022
				c-0.682-0.823-1.607-1.233-2.817-1.233c-1.132,0-2.049,0.413-2.736,1.266c-0.679,0.829-1.024,1.819-1.024,2.99
				c0,1.201,0.346,2.226,1.024,3.045C616.18,1067.086,617.097,1067.507,618.229,1067.507z"/>
			<path fill="#FFFFFF" d="M636.064,1067.279h-0.043c-0.478,0.713-1.074,1.268-1.766,1.663c-0.703,0.403-1.459,0.602-2.271,0.602
				c-1.764,0-3.153-0.618-4.168-1.854c-1.012-1.239-1.522-2.765-1.522-4.569c0-1.716,0.526-3.169,1.553-4.369
				c1.031-1.229,2.374-1.85,4.041-1.85c1.704,0,3.074,0.779,4.134,2.333h0.043v-12.129h2.288v22.026h-2.288V1067.279z
				 M632.339,1067.507c1.197,0,2.132-0.407,2.81-1.245c0.694-0.838,1.043-1.867,1.043-3.068c0-1.178-0.349-2.191-1.043-3.022
				c-0.678-0.823-1.612-1.233-2.81-1.233c-1.137,0-2.052,0.413-2.741,1.266c-0.675,0.829-1.018,1.819-1.018,2.99
				c0,1.201,0.343,2.226,1.018,3.045C630.287,1067.086,631.202,1067.507,632.339,1067.507z"/>
			<path fill="#FFFFFF" d="M644.898,1068.066c0,0.407-0.141,0.749-0.419,1.037c-0.299,0.29-0.649,0.44-1.056,0.44
				c-0.407,0-0.752-0.15-1.03-0.44c-0.293-0.288-0.438-0.63-0.438-1.037c0-0.388,0.146-0.733,0.438-1.027
				c0.278-0.293,0.623-0.438,1.03-0.438c0.406,0,0.757,0.146,1.056,0.438C644.758,1067.333,644.898,1067.679,644.898,1068.066z"/>
			<path fill="#FFFFFF" d="M657.382,1060.629c-0.943-1.063-2.082-1.597-3.393-1.597c-1.105,0-2.051,0.417-2.822,1.244
				c-0.768,0.84-1.132,1.826-1.132,2.917c0,1.239,0.364,2.245,1.132,3.019c0.797,0.802,1.789,1.196,2.964,1.196
				c1.219,0,2.308-0.539,3.251-1.572v2.915c-0.981,0.522-2.069,0.793-3.271,0.793c-1.76,0-3.269-0.61-4.522-1.81
				c-1.231-1.177-1.842-2.656-1.842-4.434c0-1.826,0.61-3.362,1.842-4.573c1.241-1.216,2.791-1.826,4.648-1.826
				c1.227,0,2.27,0.264,3.146,0.779V1060.629z"/>
			<path fill="#FFFFFF" d="M660.606,1058.728c1.237-1.216,2.745-1.826,4.518-1.826c1.774,0,3.28,0.61,4.486,1.826
				c1.245,1.211,1.855,2.728,1.855,4.496c0,1.771-0.61,3.268-1.855,4.499c-1.206,1.211-2.712,1.821-4.486,1.821
				c-1.772,0-3.28-0.61-4.518-1.821c-1.218-1.231-1.83-2.729-1.83-4.499C658.776,1061.455,659.389,1059.938,660.606,1058.728z
				 M661.064,1063.224c0,1.094,0.401,2.068,1.194,2.906c0.767,0.827,1.737,1.228,2.865,1.228c1.113,0,2.077-0.4,2.866-1.228
				c0.797-0.838,1.192-1.813,1.192-2.906c0-1.119-0.396-2.101-1.192-2.92c-0.789-0.815-1.753-1.218-2.866-1.218
				c-1.128,0-2.099,0.402-2.865,1.218C661.466,1061.123,661.064,1062.104,661.064,1063.224z"/>
			<path fill="#FFFFFF" d="M675.759,1058.751h0.051c0.336-0.542,0.776-0.981,1.355-1.328c0.567-0.353,1.163-0.521,1.783-0.521
				c1.48,0,2.617,0.7,3.434,2.109c0.369-0.643,0.885-1.16,1.538-1.545c0.645-0.378,1.359-0.564,2.109-0.564
				c2.63,0,3.938,1.708,3.938,5.121v7.109h-2.279v-6.727c0-0.301-0.01-0.604-0.047-0.894c-0.016-0.306-0.073-0.592-0.133-0.862
				c-0.073-0.288-0.168-0.546-0.306-0.783c-0.138-0.226-0.328-0.447-0.557-0.632c-0.305-0.202-0.698-0.297-1.166-0.297
				c-0.481,0-0.879,0.095-1.216,0.297c-0.331,0.185-0.574,0.421-0.756,0.689c-0.181,0.283-0.322,0.641-0.415,1.061
				c-0.099,0.42-0.167,0.807-0.193,1.146c-0.03,0.333-0.038,0.725-0.038,1.171v5.831h-2.288v-6.293c0-0.405,0-0.736-0.018-1.01
				c-0.023-0.281-0.073-0.614-0.157-1.021c-0.081-0.438-0.188-0.756-0.326-0.969c-0.14-0.234-0.354-0.438-0.63-0.631
				c-0.3-0.181-0.636-0.271-1.042-0.271c-1.17,0-1.924,0.499-2.266,1.513c-0.15,0.485-0.248,0.921-0.301,1.352
				c-0.054,0.414-0.075,0.913-0.075,1.499v5.831h-2.288v-11.878h2.288V1058.751z"/>
		</g>
		<g>
			<g>
				<path fill="#FFFFFF" d="M280.801,1062.124c10.778,0,21.548,0,32.324,0c0.978,0,0.978-1.507,0-1.507c-10.776,0-21.546,0-32.324,0
					C279.826,1060.617,279.826,1062.124,280.801,1062.124L280.801,1062.124z"/>
			</g>
			<g>
				<path fill="#FFFFFF" d="M710.875,1062.124c10.775,0,21.551,0,32.318,0c0.986,0,0.986-1.507,0-1.507c-10.768,0-21.543,0-32.318,0
					C709.897,1060.617,709.897,1062.124,710.875,1062.124L710.875,1062.124z"/>
			</g>
		</g>
	</g>
</g>
<g>
	<polygon fill="#7C828B" points="621.984,770.452 376.807,770.452 390.835,664.962 609.957,664.962 	"/>
	<path fill="#636A72" d="M404.239,678.2c23.051,5.299,46.078,10.7,69.085,16.184c46.193,11.012,92.468,21.807,138.504,33.46
		c1.819,0.462,3.638,0.937,5.457,1.402l-7.329-64.284H390.835l-0.362,2.724c0.899,0.702,1.78,1.431,2.683,2.131
		C394.908,671.172,401.575,676.172,404.239,678.2z"/>
	<polygon fill="#C5CED6" points="376.807,770.452 621.984,770.452 665.106,780.643 333.679,780.89 	"/>
	<polygon fill="#7C828B" points="662.851,786.309 335.932,786.309 333.764,780.89 665.106,780.643 	"/>
	<g>
		<path fill="none" stroke="#C370FF" stroke-width="1.335" stroke-miterlimit="10" stroke-dasharray="2.67,2.67" d="
			M837.658,216.192C838,315,838,414,837.887,513.18"/>
		<path fill="none" stroke="#C370FF" stroke-width="1.335" stroke-miterlimit="10" stroke-dasharray="2.67,2.67" d="
			M161.671,625.607V216.192c0-16.641,13.538-30.179,30.178-30.179h217.685"/>
	</g>
	<path fill="#404041" d="M807.48,676.403H191.849c-8.333,0-15.088-6.755-15.088-15.089V216.192c0-8.335,6.755-15.091,15.088-15.091
		H807.48c8.331,0,15.087,6.755,15.087,15.091v445.123C822.567,669.648,815.812,676.403,807.48,676.403z"/>
	<path fill="#C5CED6" d="M176.761,632.829v28.485c0,8.334,6.755,15.089,15.088,15.089H807.48c8.331,0,15.087-6.755,15.087-15.089
		v-28.485H176.761z"/>
	<circle fill="#0A1D45" cx="499.663" cy="219.711" r="10.058"/>
	<rect x="212.973" y="229.179" fill="#0059D6" width="573.381" height="386.782"/>
	<g>
		<g>
			<g>
				<path fill="#133785" d="M600.257,259.86c0-8.332-6.755-15.086-15.091-15.086H243.152c-8.333,0-15.089,6.755-15.089,15.086v9.055
					h372.194V259.86z"/>
				<rect x="228.063" y="268.915" fill="#E4EBFD" width="372.194" height="329.943"/>
			</g>
		</g>
		<g>
			<g>
				<g>
					<rect x="470.564" y="446.491" fill="#FFFFFF" width="101.652" height="134.064"/>
				</g>
			</g>
			<g>
				<g>
					<rect x="247.175" y="433.351" fill="#BECBEB" width="205.21" height="15.93"/>
					<rect x="247.175" y="464.558" fill="#BECBEB" width="205.21" height="15.927"/>
					<rect x="247.175" y="495.765" fill="#BECBEB" width="122.792" height="15.928"/>
					<rect x="247.175" y="526.969" fill="#BECBEB" width="97.033" height="15.928"/>
					<rect x="373.467" y="558.176" fill="#ED1E79" width="25.348" height="15.928"/>
					<rect x="247.175" y="558.176" fill="#BECBEB" width="115.354" height="15.928"/>
					<rect x="379.543" y="495.765" fill="#FBB03B" width="49.741" height="15.928"/>
					<rect x="358.818" y="526.969" fill="#BECBEB" width="93.567" height="15.928"/>
					<rect x="412.926" y="558.176" fill="#BECBEB" width="39.459" height="15.928"/>
				</g>
				<g>
					<g>
						<rect x="261.238" y="298.707" fill="#0A1D45" width="177.083" height="106.415"/>
						<g>
							<polygon fill="#133785" points="390.765,338.711 365.687,382.524 326.523,314.105 274.426,405.122 378.621,405.122 
								378.476,404.868 428.634,404.868 							"/>
							<ellipse fill="#FBB03B" cx="409.534" cy="326.394" rx="15.6" ry="16.063"/>
						</g>
					</g>
					<g>
						<g>
							<g>
								<rect x="243.641" y="414.435" fill="#0A1D45" width="7.069" height="7.281"/>
							</g>
						</g>
					</g>
				</g>
			</g>
			<g>
				<rect x="470.564" y="298.707" fill="#FFFFFF" width="101.652" height="134.936"/>
				<rect x="504.122" y="324.093" fill="#97D2FF" width="24.283" height="5.734"/>
				<rect x="477.408" y="305.518" fill="#97D2FF" width="24.283" height="5.734"/>
				<rect x="477.408" y="419.918" fill="#97D2FF" width="24.283" height="5.734"/>
				<rect x="527.191" y="305.518" fill="#97D2FF" width="8.292" height="5.734"/>
				<rect x="539.95" y="305.518" fill="#97D2FF" width="8.293" height="5.734"/>
				<rect x="504.122" y="334.83" fill="#97D2FF" width="42.905" height="5.734"/>
				<path fill="#97D2FF" d="M497.442,331.916c0,5.588-4.438,10.12-9.912,10.12c-5.479,0-9.918-4.532-9.918-10.12
					c0-5.588,4.438-10.117,9.918-10.117C493.004,321.799,497.442,326.328,497.442,331.916z"/>
				<rect x="504.122" y="357.134" fill="#97D2FF" width="24.283" height="5.734"/>
				<rect x="504.122" y="367.872" fill="#97D2FF" width="42.905" height="5.734"/>
				<path fill="#97D2FF" d="M497.442,364.958c0,5.586-4.438,10.115-9.912,10.115c-5.479,0-9.918-4.529-9.918-10.115
					c0-5.591,4.438-10.12,9.918-10.12C493.004,354.838,497.442,359.367,497.442,364.958z"/>
				<rect x="504.122" y="390.171" fill="#97D2FF" width="24.283" height="5.739"/>
				<rect x="504.122" y="400.908" fill="#97D2FF" width="42.905" height="5.74"/>
				<path fill="#97D2FF" d="M497.442,397.994c0,5.591-4.438,10.12-9.912,10.12c-5.479,0-9.918-4.529-9.918-10.12
					c0-5.586,4.438-10.115,9.918-10.115C493.004,387.879,497.442,392.408,497.442,397.994z"/>
			</g>
		</g>
	</g>
	<g>
		<rect x="625.657" y="256.844" fill="#BECBEB" width="135.292" height="135.292"/>
		<g>
			<circle fill="#E4EBFD" cx="693.304" cy="323.439" r="59.938"/>
			<path fill="#0059D6" d="M726.389,305.406c0-13.857-8.89-25.628-21.271-29.946v28.793l-10.438,5.517l-10.441-5.517V275.46
				c-12.383,4.318-21.272,16.089-21.272,29.946c0,11.857,6.517,22.188,16.158,27.627v43.709h31.25v-43.79
				C719.937,327.491,726.389,317.205,726.389,305.406z"/>
		</g>
	</g>
	<g>
		<path fill="#A5ACBA" d="M407.635,200.812c2.341,21.133,20.244,37.575,42.002,37.575h262.98c21.757,0,39.66-16.442,42.005-37.575
			H407.635z"/>
		<g>
			<path fill="#DCE6F2" d="M698.917,225.201H435.933c-23.352,0-42.279-18.928-42.279-42.279v-0.02
				c0-23.349,18.927-42.277,42.279-42.277h262.984c23.352,0,42.278,18.928,42.278,42.277v0.02
				C741.195,206.273,722.269,225.201,698.917,225.201z"/>
			<g>
				<path fill="#0059D6" d="M695.406,209.856H438.613c-14.883,0-26.945-12.063-26.945-26.943l0,0
					c0-14.883,12.062-26.945,26.945-26.945h256.793c14.884,0,26.945,12.062,26.945,26.945l0,0
					C722.352,197.794,710.29,209.856,695.406,209.856z"/>
				<path fill="#E4EBFD" d="M462.058,193.415l-9.182-8.471c0.953-1.759,1.453-3.715,1.453-5.7c0-6.66-5.417-12.075-12.077-12.075
					c-6.657,0-12.073,5.415-12.073,12.075s5.417,12.078,12.073,12.078c2.309,0,4.54-0.671,6.507-1.956l9.198,8.484
					c0.559,0.521,1.285,0.806,2.054,0.806c0.842,0,1.652-0.355,2.216-0.974c0.55-0.594,0.836-1.367,0.801-2.177
					C462.995,194.704,462.65,193.959,462.058,193.415z M449.348,179.244c0,3.912-3.184,7.095-7.095,7.095
					c-3.909,0-7.088-3.184-7.088-7.095c0-3.907,3.18-7.091,7.088-7.091C446.164,172.153,449.348,175.337,449.348,179.244z"/>
			</g>
		</g>
	</g>
	<g>
		<g>
			<g>
				<path fill="#0059D6" d="M1003.759,180.14v-11.956l-7.7-1.554l0,0c-0.205-0.563-0.439-1.112-0.69-1.653l0.011,0.011l4.347-6.541
					l-8.455-8.455l-6.541,4.347l0.011,0.011c-0.54-0.252-1.09-0.483-1.653-0.691l0,0l-1.554-7.7h-11.956l-1.552,7.7l0,0
					c-0.563,0.208-1.115,0.439-1.653,0.691l0.011-0.011l-6.541-4.347l-8.455,8.455l4.345,6.541l0.013-0.011
					c-0.251,0.541-0.485,1.091-0.693,1.653l0,0l-7.697,1.554v11.956l7.697,1.552l0,0c0.208,0.563,0.442,1.115,0.693,1.653
					l-0.013-0.011l-4.345,6.541l8.455,8.455l6.541-4.344l-0.011-0.014c0.538,0.252,1.09,0.486,1.653,0.693l0,0l1.552,7.698h11.956
					l1.554-7.698l0,0c0.563-0.208,1.113-0.441,1.653-0.693l-0.011,0.014l6.541,4.344l8.455-8.455l-4.347-6.541l-0.011,0.011
					c0.251-0.539,0.485-1.09,0.69-1.653l0,0L1003.759,180.14z M975.555,185.337c-6.172,0-11.174-5.002-11.174-11.175
					s5.002-11.174,11.174-11.174c6.173,0,11.178,5.002,11.178,11.174S981.728,185.337,975.555,185.337z"/>
			</g>
		</g>
		<g>
			<g>
				<g>
					<path fill="#0CBA83" d="M932.49,208.225v-23.303l-15.003-3.024l0,0c-0.403-1.099-0.858-2.172-1.349-3.223l0.024,0.022
						l8.468-12.749l-16.477-16.477l-12.747,8.471l0.022,0.022c-1.056-0.49-2.128-0.945-3.226-1.349h0.003l-3.027-15.002h-23.301
						l-3.026,15.002h0.002c-1.099,0.404-2.172,0.859-3.225,1.349l0.021-0.022l-12.748-8.471l-16.478,16.477l8.473,12.749
						l0.022-0.022c-0.49,1.051-0.945,2.124-1.352,3.223l0,0l-15.002,3.024v23.303l15.002,3.024l0,0
						c0.406,1.097,0.861,2.17,1.352,3.223l-0.022-0.022l-8.473,12.747l16.478,16.477l12.748-8.468l-0.021-0.022
						c1.053,0.488,2.126,0.945,3.225,1.347h-0.002l3.026,15.002h23.301l3.027-15.002h-0.003c1.098-0.402,2.17-0.859,3.226-1.347
						l-0.022,0.022l12.747,8.468l16.477-16.477l-8.468-12.747l-0.024,0.022c0.49-1.053,0.945-2.126,1.349-3.223l0,0L932.49,208.225z
						 M877.531,218.351c-12.029,0-21.78-9.751-21.78-21.778c0-12.026,9.751-21.78,21.78-21.78c12.026,0,21.774,9.753,21.774,21.78
						C899.306,208.6,889.558,218.351,877.531,218.351z"/>
				</g>
			</g>
		</g>
	</g>
	<g>
		<path fill="#A5ACBA" d="M281.595,348.354H176.74v118.57h104.855c3.738,0,6.77-2.033,6.77-4.541V352.895
			C288.365,350.387,285.333,348.354,281.595,348.354z"/>
		<g>
			<path fill="#DCE6F2" d="M268.333,449.118H34.444c-3.022,0-5.473-2.448-5.473-5.473v-104.55c0-3.022,2.451-5.475,5.473-5.475
				h233.89c3.022,0,5.472,2.453,5.472,5.475v104.55C273.806,446.67,271.355,449.118,268.333,449.118z"/>
			<g>
				<g>
					<rect x="147.793" y="416.811" fill="#BECBEB" width="106.253" height="14.859"/>
					<rect x="147.793" y="394.251" fill="#BECBEB" width="106.253" height="14.859"/>
					<rect x="147.793" y="371.69" fill="#BECBEB" width="64.832" height="14.859"/>
					<rect x="224.143" y="371.69" fill="#0CBA83" width="29.903" height="14.859"/>
					<rect x="147.793" y="349.131" fill="#BECBEB" width="106.253" height="14.859"/>
				</g>
				<g>
					<g>
						<rect x="48.731" y="348.027" fill="#0059D6" width="84.035" height="84.033"/>
						<g>
							<path fill="#FFFFFF" d="M63.409,390.936v-4.086l16.595-7.25v4.19l-12.475,5.12l12.475,5.048v4.23L63.409,390.936z"/>
							<path fill="#FFFFFF" d="M94.14,374.372h5.475l-12.26,29.038h-5.474L94.14,374.372z"/>
							<path fill="#FFFFFF" d="M101.488,393.958l12.476-5.048l-12.476-5.12v-4.19l16.601,7.25v4.086l-16.601,7.252V393.958z"/>
						</g>
					</g>
				</g>
			</g>
		</g>
	</g>
	<g>
		<g>
			<path fill="#AAAAAA" d="M146.426,913.25l0.224,13.641l688.188,1.618l0.517-15.259c0.094-0.376-2.594,0.625-3.021,0.625
				L816,914.751L146.426,913.25z"/>
			<g>
				<g>
					<path fill="#BDBDBD" d="M831.936,915.264c3.47,0,4.47-1.944,2.222-4.32l-78.364-82.85c-2.248-2.376-6.926-4.317-10.396-4.314
						l-509.087,0.447c-3.47,0.003-8.153,1.946-10.406,4.318l-78.271,82.406c-2.252,2.372-1.256,4.313,2.214,4.313H831.936z"/>
				</g>
				<g>
					<path fill="#9A9DA0" d="M236.003,834.854h29.041c0.875,0,1.779-0.242,2.022-0.54l4.43-5.458
						c0.231-0.286-0.273-0.519-1.127-0.519h-28.361c-0.854,0-1.762,0.232-2.026,0.519l-5.063,5.458
						C234.644,834.612,235.129,834.854,236.003,834.854z"/>
					<path fill="#9A9DA0" d="M273.288,834.854h29.041c0.875,0,1.748-0.242,1.95-0.54l3.7-5.458c0.193-0.286-0.343-0.519-1.198-0.519
						H278.42c-0.854,0-1.73,0.232-1.957,0.519l-4.331,5.458C271.895,834.612,272.413,834.854,273.288,834.854z"/>
					<path fill="#9A9DA0" d="M310.572,834.854h29.04c0.875,0,1.716-0.242,1.878-0.54l2.969-5.458
						c0.156-0.286-0.411-0.519-1.266-0.519h-28.361c-0.854,0-1.699,0.232-1.887,0.519l-3.601,5.458
						C309.146,834.612,309.697,834.854,310.572,834.854z"/>
					<path fill="#9A9DA0" d="M347.855,834.854h29.041c0.875,0,1.683-0.242,1.805-0.54l2.238-5.458
						c0.117-0.286-0.48-0.519-1.334-0.519h-28.361c-0.855,0-1.669,0.232-1.82,0.519l-2.87,5.458
						C346.399,834.612,346.98,834.854,347.855,834.854z"/>
					<path fill="#9A9DA0" d="M385.14,834.854h29.04c0.875,0,1.651-0.242,1.733-0.54l1.508-5.458c0.079-0.286-0.55-0.519-1.405-0.519
						h-28.361c-0.854,0-1.638,0.232-1.75,0.519l-2.139,5.458C383.65,834.612,384.265,834.854,385.14,834.854z"/>
					<path fill="#9A9DA0" d="M422.423,834.854h29.041c0.875,0,1.618-0.242,1.66-0.54l0.777-5.458
						c0.041-0.286-0.619-0.519-1.474-0.519h-28.361c-0.854,0-1.606,0.232-1.68,0.519l-1.408,5.458
						C420.902,834.612,421.548,834.854,422.423,834.854z"/>
					<path fill="#9A9DA0" d="M459.707,834.854h29.041c0.875,0,1.586-0.242,1.587-0.54l0.048-5.458
						c0.002-0.286-0.688-0.519-1.542-0.519h-28.363c-0.854,0-1.575,0.232-1.611,0.519l-0.677,5.458
						C458.152,834.612,458.832,834.854,459.707,834.854z"/>
					<path fill="#9A9DA0" d="M496.991,834.854h29.042c0.874,0,1.553-0.242,1.516-0.54l-0.685-5.458
						c-0.037-0.286-0.758-0.519-1.613-0.519h-28.36c-0.854,0-1.543,0.232-1.541,0.519l0.053,5.458
						C495.405,834.612,496.117,834.854,496.991,834.854z"/>
					<path fill="#9A9DA0" d="M534.274,834.854h29.043c0.872,0,1.521-0.242,1.442-0.54l-1.413-5.458
						c-0.075-0.286-0.829-0.519-1.684-0.519h-28.36c-0.855,0-1.514,0.232-1.473,0.519l0.783,5.458
						C532.656,834.612,533.399,834.854,534.274,834.854z"/>
					<path fill="#9A9DA0" d="M571.559,834.854h29.042c0.874,0,1.488-0.242,1.37-0.54l-2.146-5.458
						c-0.114-0.286-0.896-0.519-1.75-0.519h-28.361c-0.854,0-1.483,0.232-1.404,0.519l1.516,5.458
						C569.907,834.612,570.685,834.854,571.559,834.854z"/>
					<path fill="#9A9DA0" d="M608.842,834.854h29.042c0.875,0,1.455-0.242,1.299-0.54l-2.876-5.458
						c-0.15-0.286-0.965-0.519-1.82-0.519h-28.361c-0.854,0-1.451,0.232-1.335,0.519l2.247,5.458
						C607.159,834.612,607.969,834.854,608.842,834.854z"/>
					<path fill="#9A9DA0" d="M646.126,834.854h29.042c0.874,0,1.425-0.242,1.226-0.54l-3.605-5.458
						c-0.19-0.286-1.035-0.519-1.89-0.519h-28.36c-0.854,0-1.422,0.232-1.266,0.519l2.976,5.458
						C644.41,834.612,645.254,834.854,646.126,834.854z"/>
					<path fill="#9A9DA0" d="M683.41,834.854h29.042c0.873,0,1.39-0.242,1.153-0.54l-4.337-5.458
						c-0.227-0.286-1.103-0.519-1.957-0.519H678.95c-0.854,0-1.39,0.232-1.198,0.519l3.708,5.458
						C681.663,834.612,682.535,834.854,683.41,834.854z"/>
					<path fill="#9A9DA0" d="M720.693,834.854h29.043c0.873,0,1.357-0.242,1.08-0.54l-5.068-5.458
						c-0.266-0.286-1.173-0.519-2.027-0.519h-28.36c-0.854,0-1.359,0.232-1.127,0.519l4.438,5.458
						C718.912,834.612,719.82,834.854,720.693,834.854z"/>
					<path fill="#9A9DA0" d="M224.452,847.09h29.214c0.914,0,1.869-0.262,2.133-0.587l7.653-9.376
						c0.249-0.303-0.265-0.549-1.145-0.549h-28.158c-0.88,0-1.821,0.246-2.104,0.549l-8.702,9.376
						C223.043,846.828,223.538,847.09,224.452,847.09z"/>
					<path fill="#9A9DA0" d="M261.968,847.09h29.214c0.912,0,1.834-0.262,2.058-0.587l6.444-9.376
						c0.209-0.303-0.337-0.549-1.216-0.549H270.31c-0.88,0-1.79,0.246-2.033,0.549l-7.493,9.376
						C260.525,846.828,261.055,847.09,261.968,847.09z"/>
					<path fill="#9A9DA0" d="M299.485,847.09h29.214c0.913,0,1.8-0.262,1.981-0.587l5.235-9.376
						c0.169-0.303-0.408-0.549-1.289-0.549H306.47c-0.88,0-1.759,0.246-1.961,0.549l-6.284,9.376
						C298.008,846.828,298.572,847.09,299.485,847.09z"/>
					<path fill="#9A9DA0" d="M337.002,847.09h29.213c0.914,0,1.766-0.262,1.906-0.587l4.025-9.376
						c0.13-0.303-0.479-0.549-1.359-0.549H342.63c-0.881,0-1.727,0.246-1.891,0.549l-5.073,9.376
						C335.489,846.828,336.089,847.09,337.002,847.09z"/>
					<path fill="#9A9DA0" d="M376.971,837.127l-3.864,9.376c-0.134,0.325,0.498,0.587,1.411,0.587h29.214
						c0.914,0,1.733-0.262,1.831-0.587l2.814-9.376c0.092-0.303-0.548-0.549-1.429-0.549h-28.157
						C377.91,836.578,377.095,836.824,376.971,837.127z"/>
					<path fill="#9A9DA0" d="M443.108,836.578h-28.157c-0.881,0-1.664,0.246-1.75,0.549l-2.653,9.376
						c-0.092,0.325,0.573,0.587,1.487,0.587h29.214c0.914,0,1.699-0.262,1.755-0.587l1.604-9.376
						C444.66,836.824,443.989,836.578,443.108,836.578z"/>
					<path fill="#9A9DA0" d="M479.268,836.578H451.11c-0.88,0-1.632,0.246-1.677,0.549l-1.445,9.376
						c-0.051,0.325,0.649,0.587,1.563,0.587h29.214c0.913,0,1.665-0.262,1.679-0.587l0.396-9.376
						C480.852,836.824,480.148,836.578,479.268,836.578z"/>
					<path fill="#9A9DA0" d="M515.427,836.578h-28.156c-0.879,0-1.6,0.246-1.607,0.549l-0.234,9.376
						c-0.008,0.325,0.725,0.587,1.639,0.587h29.213c0.913,0,1.629-0.262,1.604-0.587l-0.814-9.376
						C517.044,836.824,516.309,836.578,515.427,836.578z"/>
					<path fill="#9A9DA0" d="M553.797,847.09c0.916,0,1.598-0.262,1.528-0.587l-2.025-9.376c-0.064-0.303-0.829-0.549-1.71-0.549
						h-28.159c-0.88,0-1.568,0.246-1.537,0.549l0.974,9.376c0.035,0.325,0.803,0.587,1.717,0.587H553.797z"/>
					<path fill="#9A9DA0" d="M591.315,847.09c0.913,0,1.562-0.262,1.451-0.587l-3.233-9.376c-0.105-0.303-0.904-0.549-1.785-0.549
						h-28.156c-0.881,0-1.536,0.246-1.467,0.549l2.185,9.376c0.076,0.325,0.878,0.587,1.79,0.587H591.315z"/>
					<path fill="#9A9DA0" d="M623.91,836.578h-28.158c-0.882,0-1.507,0.246-1.396,0.549l3.394,9.376
						c0.119,0.325,0.954,0.587,1.868,0.587h29.213c0.912,0,1.528-0.262,1.375-0.587l-4.442-9.376
						C625.618,836.824,624.789,836.578,623.91,836.578z"/>
					<path fill="#9A9DA0" d="M660.069,836.578H631.91c-0.877,0-1.473,0.246-1.321,0.549l4.602,9.376
						c0.159,0.325,1.031,0.587,1.943,0.587h29.213c0.914,0,1.496-0.262,1.3-0.587l-5.651-9.376
						C661.812,836.824,660.949,836.578,660.069,836.578z"/>
					<path fill="#9A9DA0" d="M703.865,847.09c0.912,0,1.459-0.262,1.224-0.587l-6.864-9.376c-0.222-0.303-1.115-0.549-1.993-0.549
						h-28.159c-0.881,0-1.443,0.246-1.256,0.549l5.814,9.376c0.203,0.325,1.106,0.587,2.019,0.587H703.865z"/>
					<path fill="#9A9DA0" d="M752.656,837.127c-0.283-0.303-1.223-0.549-2.103-0.549H704.73c-0.881,0-1.409,0.246-1.182,0.549
						l7.041,9.376c0.243,0.325,1.181,0.587,2.094,0.587h47.541c0.912,0,1.41-0.262,1.111-0.587L752.656,837.127z"/>
					<path fill="#9A9DA0" d="M761.998,849.021h-29.407c-0.918,0-1.446,0.267-1.177,0.599l8.338,10.242
						c0.289,0.355,1.298,0.644,2.253,0.644h30.563c0.954,0,1.463-0.288,1.132-0.644l-9.482-10.242
						C763.912,849.287,762.919,849.021,761.998,849.021z"/>
					<path fill="#9A9DA0" d="M734.536,859.861l-8.16-10.242c-0.265-0.332-1.222-0.599-2.142-0.599h-29.408
						c-0.92,0-1.481,0.267-1.255,0.599l7.016,10.242c0.243,0.355,1.214,0.644,2.17,0.644h30.562
						C734.274,860.505,734.819,860.217,734.536,859.861z"/>
					<path fill="#9A9DA0" d="M655.73,849.619l5.692,10.242c0.198,0.355,1.132,0.644,2.089,0.644h30.562
						c0.954,0,1.537-0.288,1.298-0.644l-6.837-10.242c-0.222-0.332-1.146-0.599-2.066-0.599h-29.407
						C656.143,849.021,655.544,849.287,655.73,849.619z"/>
					<path fill="#9A9DA0" d="M617.886,849.619l4.373,10.242c0.152,0.355,1.048,0.644,2.005,0.644h30.561
						c0.956,0,1.574-0.288,1.383-0.644l-5.516-10.242c-0.18-0.332-1.068-0.599-1.987-0.599h-29.409
						C618.376,849.021,617.745,849.287,617.886,849.619z"/>
					<path fill="#9A9DA0" d="M617.043,859.861l-4.194-10.242c-0.138-0.332-0.991-0.599-1.911-0.599h-29.406
						c-0.919,0-1.586,0.267-1.486,0.599l3.051,10.242c0.105,0.355,0.965,0.644,1.92,0.644h30.563
						C616.533,860.505,617.188,860.217,617.043,859.861z"/>
					<path fill="#9A9DA0" d="M577.88,859.861l-2.875-10.242c-0.091-0.332-0.912-0.599-1.831-0.599h-29.409
						c-0.92,0-1.619,0.267-1.564,0.599l1.73,10.242c0.058,0.355,0.884,0.644,1.837,0.644h30.563
						C577.286,860.505,577.979,860.217,577.88,859.861z"/>
					<path fill="#9A9DA0" d="M504.359,849.619l0.407,10.242c0.013,0.355,0.799,0.644,1.755,0.644h30.563
						c0.956,0,1.686-0.288,1.632-0.644l-1.553-10.242c-0.05-0.332-0.837-0.599-1.757-0.599h-29.405
						C505.081,849.021,504.345,849.287,504.359,849.619z"/>
					<path fill="#9A9DA0" d="M466.517,849.619l-0.915,10.242c-0.031,0.355,0.717,0.644,1.673,0.644h30.561
						c0.956,0,1.723-0.288,1.716-0.644l-0.232-10.242c-0.007-0.332-0.757-0.599-1.677-0.599h-29.409
						C467.314,849.021,466.545,849.287,466.517,849.619z"/>
					<path fill="#9A9DA0" d="M428.674,849.619l-2.236,10.242c-0.078,0.355,0.634,0.644,1.589,0.644h30.562
						c0.956,0,1.76-0.288,1.8-0.644l1.089-10.242c0.035-0.332-0.682-0.599-1.602-0.599h-29.407
						C429.549,849.021,428.746,849.287,428.674,849.619z"/>
					<path fill="#9A9DA0" d="M390.832,849.619l-3.558,10.242c-0.123,0.355,0.55,0.644,1.506,0.644h30.562
						c0.955,0,1.797-0.288,1.882-0.644l2.412-10.242c0.078-0.332-0.605-0.599-1.523-0.599h-29.409
						C391.785,849.021,390.946,849.287,390.832,849.619z"/>
					<path fill="#9A9DA0" d="M382.06,859.861l3.732-10.242c0.121-0.332-0.527-0.599-1.445-0.599h-29.409
						c-0.918,0-1.792,0.267-1.949,0.599l-4.879,10.242c-0.17,0.355,0.467,0.644,1.423,0.644h30.563
						C381.05,860.505,381.93,860.217,382.06,859.861z"/>
					<path fill="#9A9DA0" d="M340.848,860.505c0.955,0,1.872-0.288,2.047-0.644l5.055-10.242c0.165-0.332-0.449-0.599-1.368-0.599
						h-29.408c-0.919,0-1.827,0.267-2.026,0.599l-6.202,10.242c-0.215,0.355,0.385,0.644,1.341,0.644H340.848z"/>
					<path fill="#9A9DA0" d="M303.73,859.861l6.377-10.242c0.206-0.332-0.372-0.599-1.292-0.599h-29.409
						c-0.917,0-1.86,0.267-2.103,0.599l-7.522,10.242c-0.261,0.355,0.302,0.644,1.257,0.644h30.563
						C302.555,860.505,303.51,860.217,303.73,859.861z"/>
					<path fill="#9A9DA0" d="M270.108,875.483h32.066c1.003,0,2.003-0.318,2.234-0.709l6.655-11.255
						c0.215-0.364-0.392-0.657-1.355-0.657h-30.799c-0.962,0-1.949,0.293-2.205,0.657l-7.915,11.255
						C268.516,875.165,269.105,875.483,270.108,875.483z"/>
					<path fill="#9A9DA0" d="M281.15,892.045h33.731c1.055,0,2.093-0.351,2.319-0.784l6.513-12.429
						c0.208-0.399-0.44-0.723-1.452-0.723h-32.331c-1.009,0-2.035,0.323-2.29,0.723l-7.902,12.429
						C279.465,891.694,280.097,892.045,281.15,892.045z"/>
					<path fill="#9A9DA0" d="M213.754,895.253h-34.052c-1.064,0-2.262,0.359-2.673,0.802l-15.152,16.308
						c-0.454,0.488,0.085,0.888,1.207,0.888h35.861c1.121,0,2.354-0.399,2.754-0.888l13.328-16.308
						C215.389,895.612,214.819,895.253,213.754,895.253z"/>
					<path fill="#9A9DA0" d="M257.767,895.253h-34.053c-1.064,0-2.214,0.359-2.57,0.802l-13.034,16.308
						c-0.39,0.488,0.202,0.888,1.323,0.888h35.859c1.121,0,2.303-0.399,2.639-0.888l11.209-16.308
						C259.446,895.612,258.831,895.253,257.767,895.253z"/>
					<path fill="#9A9DA0" d="M301.777,895.253h-34.052c-1.065,0-2.168,0.359-2.466,0.802l-10.916,16.308
						c-0.327,0.488,0.316,0.888,1.437,0.888h35.861c1.121,0,2.251-0.399,2.523-0.888l9.093-16.308
						C303.505,895.612,302.843,895.253,301.777,895.253z"/>
					<path fill="#9A9DA0" d="M356.068,895.253h-44.332c-1.064,0-2.122,0.359-2.36,0.802l-8.799,16.308
						c-0.264,0.488,0.43,0.888,1.551,0.888h46.688c1.121,0,2.188-0.399,2.382-0.888l6.481-16.308
						C357.854,895.612,357.133,895.253,356.068,895.253z"/>
					<path fill="#9A9DA0" d="M674.109,895.253h-34.053c-1.067,0-1.774,0.359-1.583,0.802l6.996,16.308
						c0.21,0.488,1.289,0.888,2.408,0.888h35.863c1.119,0,1.814-0.399,1.55-0.888l-8.822-16.308
						C676.23,895.612,675.172,895.253,674.109,895.253z"/>
					<path fill="#9A9DA0" d="M630.096,895.253h-44.331c-1.063,0-1.832,0.359-1.712,0.802l4.384,16.308
						c0.134,0.488,1.148,0.888,2.268,0.888h46.688c1.122,0,1.866-0.399,1.666-0.888l-6.703-16.308
						C632.171,895.612,631.16,895.253,630.096,895.253z"/>
					<path fill="#9A9DA0" d="M574.841,895.253H366.028c-1.064,0-2.063,0.359-2.232,0.802l-6.187,16.308
						c-0.185,0.488,0.573,0.888,1.694,0.888h219.899c1.124,0,1.933-0.399,1.811-0.888l-4.045-16.308
						C576.859,895.612,575.905,895.253,574.841,895.253z"/>
					<path fill="#9A9DA0" d="M363.742,878.109h-32.33c-1.011,0-1.995,0.323-2.198,0.723l-6.299,12.429
						c-0.219,0.434,0.458,0.784,1.513,0.784h33.729c1.055,0,2.048-0.351,2.219-0.784l4.909-12.429
						C365.443,878.433,364.752,878.109,363.742,878.109z"/>
					<path fill="#9A9DA0" d="M367.704,892.045h33.73c1.055,0,2.003-0.351,2.118-0.784l3.308-12.429
						c0.107-0.399-0.626-0.723-1.638-0.723h-32.33c-1.01,0-1.952,0.323-2.104,0.723l-4.697,12.429
						C365.928,891.694,366.649,892.045,367.704,892.045z"/>
					<path fill="#9A9DA0" d="M410.981,892.045h33.73c1.055,0,1.957-0.351,2.017-0.784l1.706-12.429
						c0.055-0.399-0.72-0.723-1.73-0.723h-32.331c-1.01,0-1.91,0.323-2.01,0.723l-3.095,12.429
						C409.158,891.694,409.926,892.045,410.981,892.045z"/>
					<path fill="#9A9DA0" d="M454.257,892.045h33.73c1.054,0,1.913-0.351,1.917-0.784l0.104-12.429
						c0.002-0.399-0.813-0.723-1.824-0.723h-32.331c-1.011,0-1.869,0.323-1.917,0.723l-1.493,12.429
						C452.391,891.694,453.203,892.045,454.257,892.045z"/>
					<path fill="#9A9DA0" d="M497.534,892.045h33.731c1.055,0,1.865-0.351,1.815-0.784l-1.499-12.429
						c-0.05-0.399-0.908-0.723-1.919-0.723h-32.329c-1.012,0-1.828,0.323-1.825,0.723l0.109,12.429
						C495.622,891.694,496.479,892.045,497.534,892.045z"/>
					<path fill="#9A9DA0" d="M571.144,878.109h-32.332c-1.009,0-1.782,0.323-1.728,0.723l1.708,12.429
						c0.062,0.434,0.963,0.784,2.019,0.784h33.73c1.055,0,1.822-0.351,1.714-0.784l-3.101-12.429
						C573.055,878.433,572.155,878.109,571.144,878.109z"/>
					<path fill="#9A9DA0" d="M617.818,892.045c1.055,0,1.776-0.351,1.611-0.784l-4.7-12.429c-0.152-0.399-1.094-0.723-2.105-0.723
						h-32.331c-1.012,0-1.742,0.323-1.637,0.723l3.313,12.429c0.116,0.434,1.063,0.784,2.119,0.784H617.818z"/>
					<path fill="#9A9DA0" d="M627.364,892.045h33.731c1.054,0,1.73-0.351,1.511-0.784l-6.306-12.429
						c-0.201-0.399-1.187-0.723-2.196-0.723h-32.33c-1.012,0-1.702,0.323-1.546,0.723l4.917,12.429
						C625.314,891.694,626.31,892.045,627.364,892.045z"/>
					<path fill="#9A9DA0" d="M670.641,892.045h33.73c1.055,0,1.686-0.351,1.41-0.784l-7.907-12.429
						c-0.253-0.399-1.279-0.723-2.29-0.723h-32.329c-1.011,0-1.659,0.323-1.451,0.723l6.517,12.429
						C668.548,891.694,669.585,892.045,670.641,892.045z"/>
					<path fill="#9A9DA0" d="M345.563,874.774l5.2-11.255c0.169-0.364-0.477-0.657-1.439-0.657h-30.798
						c-0.963,0-1.913,0.293-2.12,0.657l-6.46,11.255c-0.225,0.391,0.407,0.709,1.409,0.709h32.067
						C344.424,875.483,345.384,875.165,345.563,874.774z"/>
					<path fill="#9A9DA0" d="M352.603,875.483h32.067c1.001,0,1.92-0.318,2.05-0.709l3.746-11.255
						c0.121-0.364-0.563-0.657-1.526-0.657h-30.797c-0.963,0-1.874,0.293-2.035,0.657l-5.005,11.255
						C350.929,875.165,351.601,875.483,352.603,875.483z"/>
					<path fill="#9A9DA0" d="M427.876,874.774l2.291-11.255c0.075-0.364-0.647-0.657-1.61-0.657H397.76
						c-0.963,0-1.836,0.293-1.951,0.657l-3.55,11.255c-0.123,0.391,0.589,0.709,1.592,0.709h32.065
						C426.919,875.483,427.797,875.165,427.876,874.774z"/>
					<path fill="#9A9DA0" d="M469.033,874.774l0.836-11.255c0.027-0.364-0.731-0.657-1.694-0.657h-30.799
						c-0.962,0-1.797,0.293-1.865,0.657l-2.095,11.255c-0.072,0.391,0.681,0.709,1.684,0.709h32.065
						C468.167,875.483,469.004,875.165,469.033,874.774z"/>
					<path fill="#9A9DA0" d="M510.188,874.774l-0.618-11.255c-0.02-0.364-0.816-0.657-1.779-0.657h-30.798
						c-0.963,0-1.759,0.293-1.781,0.657l-0.64,11.255c-0.023,0.391,0.772,0.709,1.774,0.709h32.066
						C509.416,875.483,510.21,875.165,510.188,874.774z"/>
					<path fill="#9A9DA0" d="M551.346,874.774l-2.073-11.255c-0.068-0.364-0.903-0.657-1.866-0.657H516.61
						c-0.964,0-1.724,0.293-1.696,0.657l0.813,11.255c0.029,0.391,0.864,0.709,1.869,0.709h32.066
						C550.663,875.483,551.418,875.165,551.346,874.774z"/>
					<path fill="#9A9DA0" d="M558.842,875.483h32.066c1.003,0,1.716-0.318,1.592-0.709l-3.525-11.255
						c-0.115-0.364-0.987-0.657-1.95-0.657h-30.799c-0.963,0-1.685,0.293-1.61,0.657l2.269,11.255
						C556.962,875.165,557.84,875.483,558.842,875.483z"/>
					<path fill="#9A9DA0" d="M600.088,875.483h32.069c1.002,0,1.673-0.318,1.501-0.709l-4.983-11.255
						c-0.16-0.364-1.069-0.657-2.032-0.657h-30.8c-0.963,0-1.646,0.293-1.528,0.657l3.726,11.255
						C598.17,875.165,599.088,875.483,600.088,875.483z"/>
					<path fill="#9A9DA0" d="M674.813,874.774l-6.438-11.255c-0.207-0.364-1.155-0.657-2.119-0.657h-30.798
						c-0.964,0-1.607,0.293-1.441,0.657l5.18,11.255c0.179,0.391,1.137,0.709,2.141,0.709h32.066
						C674.406,875.483,675.037,875.165,674.813,874.774z"/>
					<path fill="#9A9DA0" d="M715.969,874.774l-7.89-11.255c-0.257-0.364-1.24-0.657-2.203-0.657h-30.8
						c-0.963,0-1.571,0.293-1.355,0.657l6.632,11.255c0.229,0.391,1.229,0.709,2.232,0.709h32.066
						C715.654,875.483,716.243,875.165,715.969,874.774z"/>
					<path fill="#9A9DA0" d="M212.078,860.505h49.735c0.954,0,1.947-0.288,2.214-0.644l7.716-10.242
						c0.25-0.332-0.295-0.599-1.212-0.599h-47.858c-0.919,0-1.913,0.267-2.22,0.599l-9.507,10.242
						C210.616,860.217,211.122,860.505,212.078,860.505z"/>
					<path fill="#9A9DA0" d="M198.261,875.483h62.393c1.002,0,2.045-0.318,2.327-0.709l8.118-11.255
						c0.262-0.364-0.307-0.657-1.27-0.657h-59.926c-0.963,0-2.015,0.293-2.352,0.657l-10.448,11.255
						C196.74,875.165,197.257,875.483,198.261,875.483z"/>
					<path fill="#9A9DA0" d="M183.012,892.013h87.738c1.055,0,2.14-0.352,2.423-0.783l8.145-12.426
						c0.262-0.401-0.345-0.725-1.355-0.725h-84.098c-1.01,0-2.13,0.323-2.501,0.725l-11.533,12.426
						C181.429,891.661,181.958,892.013,183.012,892.013z"/>
					<path fill="#9A9DA0" d="M789.093,878.079h-84.099c-1.009,0-1.617,0.323-1.356,0.725l8.129,12.426
						c0.282,0.432,1.368,0.783,2.42,0.783h87.741c1.052,0,1.584-0.352,1.182-0.783l-11.519-12.426
						C791.222,878.402,790.102,878.079,789.093,878.079z"/>
					<path fill="#9A9DA0" d="M775.878,862.944h-59.946c-0.963,0-1.529,0.293-1.267,0.657l8.134,11.262
						c0.281,0.391,1.325,0.709,2.328,0.709h62.411c1.001,0,1.521-0.318,1.156-0.709l-10.464-11.262
						C777.892,863.237,776.84,862.944,775.878,862.944z"/>
					<path fill="#9A9DA0" d="M716.494,895.253l-32.78,0.157c-0.845,0.005-1.424,0.779-1.103,1.481
						c3.82,8.352,8.165,15.324,8.165,15.324c0.272,0.487,1.401,0.885,2.522,0.885h36.27c1.12,0,1.763-0.397,1.437-0.885
						c0,0-4.545-6.692-10.023-14.719C720.025,896.099,718.321,895.243,716.494,895.253z"/>
					<path fill="#9A9DA0" d="M802.702,894.882l-33.187,0.08c-0.704,0.002-1.111,0.722-0.701,1.234
						c6.845,8.574,13.293,16.02,13.293,16.02c0.398,0.487,1.63,0.885,2.75,0.885h36.27c1.12,0,1.661-0.397,1.207-0.885
						c0,0-7.064-7.354-15.738-15.81C805.594,895.431,804.18,894.877,802.702,894.882z"/>
					<path fill="#9A9DA0" d="M760.881,894.388h-34.366c-1.062,0-1.542,0.555-1.068,1.242l6.261,9.128l1.356,1.976l3.761,5.482
						c0.333,0.487,1.515,0.885,2.635,0.885h36.268c1.12,0,1.712-0.397,1.322-0.885l-4.38-5.482l-1.578-1.976l-7.294-9.128
						C763.248,894.942,761.943,894.388,760.881,894.388z"/>
				</g>
				<g>
					<path fill="#FFFFFF" d="M234.473,833.275h29.041c0.875,0,1.779-0.242,2.022-0.54l4.43-5.458
						c0.231-0.286-0.273-0.519-1.127-0.519h-28.361c-0.854,0-1.762,0.232-2.026,0.519l-5.063,5.458
						C233.114,833.033,233.599,833.275,234.473,833.275z"/>
					<path fill="#FFFFFF" d="M271.758,833.275h29.041c0.875,0,1.748-0.242,1.95-0.54l3.7-5.458c0.193-0.286-0.343-0.519-1.198-0.519
						H276.89c-0.854,0-1.73,0.232-1.957,0.519l-4.332,5.458C270.365,833.033,270.883,833.275,271.758,833.275z"/>
					<path fill="#FFFFFF" d="M309.042,833.275h29.04c0.875,0,1.716-0.242,1.878-0.54l2.969-5.458
						c0.156-0.286-0.411-0.519-1.266-0.519h-28.361c-0.854,0-1.699,0.232-1.887,0.519l-3.601,5.458
						C307.616,833.033,308.167,833.275,309.042,833.275z"/>
					<path fill="#FFFFFF" d="M346.325,833.275h29.041c0.875,0,1.683-0.242,1.805-0.54l2.238-5.458
						c0.117-0.286-0.48-0.519-1.335-0.519h-28.36c-0.855,0-1.669,0.232-1.82,0.519l-2.87,5.458
						C344.869,833.033,345.45,833.275,346.325,833.275z"/>
					<path fill="#FFFFFF" d="M383.609,833.275h29.04c0.875,0,1.651-0.242,1.733-0.54l1.508-5.458
						c0.079-0.286-0.55-0.519-1.405-0.519h-28.361c-0.854,0-1.638,0.232-1.75,0.519l-2.139,5.458
						C382.12,833.033,382.734,833.275,383.609,833.275z"/>
					<path fill="#FFFFFF" d="M420.893,833.275h29.041c0.875,0,1.618-0.242,1.66-0.54l0.777-5.458
						c0.041-0.286-0.619-0.519-1.474-0.519h-28.361c-0.854,0-1.606,0.232-1.68,0.519l-1.408,5.458
						C419.372,833.033,420.018,833.275,420.893,833.275z"/>
					<path fill="#FFFFFF" d="M458.177,833.275h29.041c0.875,0,1.586-0.242,1.587-0.54l0.048-5.458
						c0.002-0.286-0.688-0.519-1.542-0.519h-28.363c-0.854,0-1.575,0.232-1.611,0.519l-0.677,5.458
						C456.622,833.033,457.302,833.275,458.177,833.275z"/>
					<path fill="#FFFFFF" d="M495.46,833.275h29.042c0.874,0,1.553-0.242,1.516-0.54l-0.685-5.458
						c-0.037-0.286-0.758-0.519-1.613-0.519h-28.36c-0.854,0-1.543,0.232-1.541,0.519l0.053,5.458
						C493.875,833.033,494.587,833.275,495.46,833.275z"/>
					<path fill="#FFFFFF" d="M532.744,833.275h29.043c0.872,0,1.521-0.242,1.441-0.54l-1.412-5.458
						c-0.075-0.286-0.83-0.519-1.684-0.519h-28.36c-0.855,0-1.515,0.232-1.473,0.519l0.783,5.458
						C531.126,833.033,531.869,833.275,532.744,833.275z"/>
					<path fill="#FFFFFF" d="M570.028,833.275h29.042c0.873,0,1.488-0.242,1.37-0.54l-2.146-5.458
						c-0.114-0.286-0.896-0.519-1.75-0.519h-28.361c-0.854,0-1.483,0.232-1.404,0.519l1.516,5.458
						C568.377,833.033,569.154,833.275,570.028,833.275z"/>
					<path fill="#FFFFFF" d="M607.312,833.275h29.042c0.875,0,1.455-0.242,1.299-0.54l-2.876-5.458
						c-0.15-0.286-0.965-0.519-1.82-0.519h-28.361c-0.854,0-1.451,0.232-1.335,0.519l2.246,5.458
						C605.629,833.033,606.438,833.275,607.312,833.275z"/>
					<path fill="#FFFFFF" d="M644.596,833.275h29.042c0.874,0,1.425-0.242,1.226-0.54l-3.605-5.458
						c-0.19-0.286-1.035-0.519-1.89-0.519h-28.36c-0.855,0-1.422,0.232-1.266,0.519l2.976,5.458
						C642.88,833.033,643.723,833.275,644.596,833.275z"/>
					<path fill="#FFFFFF" d="M681.88,833.275h29.042c0.873,0,1.391-0.242,1.153-0.54l-4.337-5.458
						c-0.227-0.286-1.103-0.519-1.957-0.519H677.42c-0.854,0-1.391,0.232-1.197,0.519l3.707,5.458
						C680.133,833.033,681.006,833.275,681.88,833.275z"/>
					<path fill="#FFFFFF" d="M719.164,833.275h29.042c0.873,0,1.357-0.242,1.081-0.54l-5.069-5.458
						c-0.266-0.286-1.173-0.519-2.027-0.519h-28.36c-0.855,0-1.359,0.232-1.127,0.519l4.438,5.458
						C717.382,833.033,718.29,833.275,719.164,833.275z"/>
					<path fill="#FFFFFF" d="M222.921,845.511h29.214c0.914,0,1.869-0.262,2.133-0.587l7.653-9.376
						c0.249-0.303-0.265-0.549-1.145-0.549h-28.158c-0.88,0-1.821,0.246-2.104,0.549l-8.702,9.376
						C221.513,845.249,222.008,845.511,222.921,845.511z"/>
					<path fill="#FFFFFF" d="M260.438,845.511h29.214c0.912,0,1.834-0.262,2.058-0.587l6.444-9.376
						c0.209-0.303-0.337-0.549-1.216-0.549h-28.158c-0.88,0-1.79,0.246-2.033,0.549l-7.493,9.376
						C258.995,845.249,259.524,845.511,260.438,845.511z"/>
					<path fill="#FFFFFF" d="M297.955,845.511h29.214c0.913,0,1.8-0.262,1.981-0.587l5.235-9.376
						c0.169-0.303-0.408-0.549-1.289-0.549H304.94c-0.88,0-1.759,0.246-1.961,0.549l-6.284,9.376
						C296.478,845.249,297.042,845.511,297.955,845.511z"/>
					<path fill="#FFFFFF" d="M335.472,845.511h29.213c0.914,0,1.766-0.262,1.906-0.587l4.025-9.376
						c0.13-0.303-0.479-0.549-1.359-0.549H341.1c-0.881,0-1.727,0.246-1.891,0.549l-5.073,9.376
						C333.959,845.249,334.559,845.511,335.472,845.511z"/>
					<path fill="#FFFFFF" d="M375.44,835.548l-3.864,9.376c-0.134,0.325,0.498,0.587,1.411,0.587h29.214
						c0.914,0,1.733-0.262,1.831-0.587l2.814-9.376c0.092-0.303-0.548-0.549-1.429-0.549H377.26
						C376.379,834.999,375.565,835.245,375.44,835.548z"/>
					<path fill="#FFFFFF" d="M441.578,834.999h-28.157c-0.881,0-1.664,0.246-1.75,0.549l-2.653,9.376
						c-0.092,0.325,0.573,0.587,1.487,0.587h29.214c0.914,0,1.699-0.262,1.755-0.587l1.604-9.376
						C443.129,835.245,442.459,834.999,441.578,834.999z"/>
					<path fill="#FFFFFF" d="M477.738,834.999H449.58c-0.88,0-1.632,0.246-1.677,0.549l-1.445,9.376
						c-0.051,0.325,0.649,0.587,1.563,0.587h29.214c0.913,0,1.665-0.262,1.679-0.587l0.396-9.376
						C479.321,835.245,478.618,834.999,477.738,834.999z"/>
					<path fill="#FFFFFF" d="M513.897,834.999H485.74c-0.88,0-1.6,0.246-1.607,0.549l-0.234,9.376
						c-0.008,0.325,0.725,0.587,1.639,0.587h29.214c0.912,0,1.628-0.262,1.603-0.587l-0.814-9.376
						C515.514,835.245,514.778,834.999,513.897,834.999z"/>
					<path fill="#FFFFFF" d="M552.267,845.511c0.915,0,1.598-0.262,1.528-0.587l-2.025-9.376c-0.064-0.303-0.83-0.549-1.71-0.549
						H521.9c-0.881,0-1.568,0.246-1.537,0.549l0.975,9.376c0.034,0.325,0.802,0.587,1.716,0.587H552.267z"/>
					<path fill="#FFFFFF" d="M589.785,845.511c0.913,0,1.562-0.262,1.451-0.587l-3.233-9.376c-0.105-0.303-0.904-0.549-1.785-0.549
						h-28.155c-0.882,0-1.537,0.246-1.468,0.549l2.185,9.376c0.076,0.325,0.878,0.587,1.79,0.587H589.785z"/>
					<path fill="#FFFFFF" d="M622.38,834.999h-28.158c-0.882,0-1.507,0.246-1.396,0.549l3.395,9.376
						c0.118,0.325,0.953,0.587,1.867,0.587h29.213c0.912,0,1.528-0.262,1.375-0.587l-4.442-9.376
						C624.088,835.245,623.259,834.999,622.38,834.999z"/>
					<path fill="#FFFFFF" d="M658.539,834.999H630.38c-0.877,0-1.473,0.246-1.321,0.549l4.602,9.376
						c0.16,0.325,1.031,0.587,1.943,0.587h29.213c0.914,0,1.496-0.262,1.3-0.587l-5.651-9.376
						C660.281,835.245,659.42,834.999,658.539,834.999z"/>
					<path fill="#FFFFFF" d="M702.335,845.511c0.911,0,1.46-0.262,1.224-0.587l-6.864-9.376c-0.222-0.303-1.115-0.549-1.993-0.549
						h-28.159c-0.881,0-1.443,0.246-1.256,0.549l5.814,9.376c0.204,0.325,1.106,0.587,2.019,0.587H702.335z"/>
					<path fill="#FFFFFF" d="M751.126,835.548c-0.283-0.303-1.223-0.549-2.103-0.549H703.2c-0.881,0-1.409,0.246-1.182,0.549
						l7.04,9.376c0.244,0.325,1.182,0.587,2.095,0.587h47.541c0.912,0,1.41-0.262,1.11-0.587L751.126,835.548z"/>
					<path fill="#FFFFFF" d="M760.468,847.441h-29.407c-0.918,0-1.445,0.267-1.176,0.599l8.337,10.242
						c0.289,0.355,1.298,0.644,2.253,0.644h30.563c0.954,0,1.463-0.288,1.132-0.644l-9.482-10.242
						C762.382,847.708,761.389,847.441,760.468,847.441z"/>
					<path fill="#FFFFFF" d="M733.006,858.282l-8.16-10.242c-0.264-0.332-1.222-0.599-2.142-0.599h-29.409
						c-0.919,0-1.48,0.267-1.254,0.599l7.016,10.242c0.244,0.355,1.214,0.644,2.17,0.644h30.562
						C732.744,858.926,733.289,858.638,733.006,858.282z"/>
					<path fill="#FFFFFF" d="M654.2,848.04l5.692,10.242c0.198,0.355,1.132,0.644,2.089,0.644h30.562
						c0.953,0,1.537-0.288,1.298-0.644l-6.837-10.242c-0.222-0.332-1.146-0.599-2.066-0.599H655.53
						C654.612,847.441,654.014,847.708,654.2,848.04z"/>
					<path fill="#FFFFFF" d="M616.355,848.04l4.373,10.242c0.152,0.355,1.048,0.644,2.004,0.644h30.562
						c0.956,0,1.573-0.288,1.383-0.644l-5.517-10.242c-0.179-0.332-1.068-0.599-1.986-0.599h-29.409
						C616.846,847.441,616.215,847.708,616.355,848.04z"/>
					<path fill="#FFFFFF" d="M615.513,858.282l-4.194-10.242c-0.138-0.332-0.991-0.599-1.911-0.599h-29.406
						c-0.919,0-1.585,0.267-1.486,0.599l3.051,10.242c0.105,0.355,0.965,0.644,1.92,0.644h30.563
						C615.003,858.926,615.658,858.638,615.513,858.282z"/>
					<path fill="#FFFFFF" d="M576.35,858.282l-2.875-10.242c-0.091-0.332-0.912-0.599-1.831-0.599h-29.409
						c-0.92,0-1.619,0.267-1.564,0.599l1.73,10.242c0.058,0.355,0.884,0.644,1.837,0.644H574.8
						C575.756,858.926,576.448,858.638,576.35,858.282z"/>
					<path fill="#FFFFFF" d="M502.829,848.04l0.407,10.242c0.013,0.355,0.799,0.644,1.755,0.644h30.563
						c0.956,0,1.686-0.288,1.632-0.644l-1.553-10.242c-0.05-0.332-0.837-0.599-1.757-0.599h-29.405
						C503.551,847.441,502.814,847.708,502.829,848.04z"/>
					<path fill="#FFFFFF" d="M464.986,848.04l-0.915,10.242c-0.031,0.355,0.717,0.644,1.673,0.644h30.561
						c0.956,0,1.723-0.288,1.716-0.644l-0.232-10.242c-0.007-0.332-0.757-0.599-1.677-0.599h-29.409
						C465.784,847.441,465.015,847.708,464.986,848.04z"/>
					<path fill="#FFFFFF" d="M427.144,848.04l-2.236,10.242c-0.078,0.355,0.634,0.644,1.589,0.644h30.562
						c0.956,0,1.76-0.288,1.8-0.644l1.089-10.242c0.035-0.332-0.682-0.599-1.602-0.599h-29.407
						C428.019,847.441,427.215,847.708,427.144,848.04z"/>
					<path fill="#FFFFFF" d="M389.302,848.04l-3.558,10.242c-0.123,0.355,0.549,0.644,1.506,0.644h30.562
						c0.955,0,1.797-0.288,1.882-0.644l2.412-10.242c0.078-0.332-0.605-0.599-1.523-0.599h-29.409
						C390.255,847.441,389.416,847.708,389.302,848.04z"/>
					<path fill="#FFFFFF" d="M380.53,858.282l3.732-10.242c0.121-0.332-0.527-0.599-1.445-0.599h-29.409
						c-0.918,0-1.792,0.267-1.949,0.599l-4.879,10.242c-0.17,0.355,0.467,0.644,1.423,0.644h30.563
						C379.52,858.926,380.399,858.638,380.53,858.282z"/>
					<path fill="#FFFFFF" d="M339.317,858.926c0.955,0,1.872-0.288,2.047-0.644l5.055-10.242c0.165-0.332-0.449-0.599-1.368-0.599
						h-29.408c-0.919,0-1.827,0.267-2.026,0.599l-6.202,10.242c-0.215,0.355,0.385,0.644,1.341,0.644H339.317z"/>
					<path fill="#FFFFFF" d="M302.2,858.282l6.377-10.242c0.206-0.332-0.372-0.599-1.292-0.599h-29.409
						c-0.917,0-1.86,0.267-2.103,0.599l-7.522,10.242c-0.261,0.355,0.302,0.644,1.257,0.644h30.563
						C301.025,858.926,301.979,858.638,302.2,858.282z"/>
					<path fill="#FFFFFF" d="M268.578,873.904h32.066c1.003,0,2.003-0.318,2.234-0.709l6.655-11.255
						c0.215-0.364-0.392-0.657-1.355-0.657h-30.799c-0.962,0-1.949,0.293-2.205,0.657l-7.915,11.255
						C266.986,873.586,267.575,873.904,268.578,873.904z"/>
					<path fill="#FFFFFF" d="M279.62,890.466h33.731c1.055,0,2.093-0.351,2.319-0.784l6.513-12.429
						c0.208-0.399-0.441-0.723-1.452-0.723H288.4c-1.009,0-2.035,0.323-2.29,0.723l-7.902,12.429
						C277.935,890.115,278.566,890.466,279.62,890.466z"/>
					<path fill="#FFFFFF" d="M212.223,893.674h-34.052c-1.064,0-2.262,0.359-2.673,0.802l-15.152,16.308
						c-0.454,0.488,0.086,0.888,1.207,0.888h35.861c1.121,0,2.354-0.399,2.754-0.888l13.328-16.308
						C213.859,894.033,213.289,893.674,212.223,893.674z"/>
					<path fill="#FFFFFF" d="M256.236,893.674h-34.053c-1.064,0-2.214,0.359-2.57,0.802l-13.034,16.308
						c-0.389,0.488,0.202,0.888,1.323,0.888h35.86c1.121,0,2.303-0.399,2.639-0.888l11.209-16.308
						C257.916,894.033,257.301,893.674,256.236,893.674z"/>
					<path fill="#FFFFFF" d="M300.247,893.674h-34.052c-1.065,0-2.168,0.359-2.466,0.802l-10.916,16.308
						c-0.327,0.488,0.316,0.888,1.437,0.888h35.861c1.121,0,2.251-0.399,2.523-0.888l9.093-16.308
						C301.975,894.033,301.313,893.674,300.247,893.674z"/>
					<path fill="#FFFFFF" d="M354.538,893.674h-44.332c-1.064,0-2.122,0.359-2.36,0.802l-8.799,16.308
						c-0.264,0.488,0.43,0.888,1.551,0.888h46.688c1.121,0,2.188-0.399,2.382-0.888l6.481-16.308
						C356.323,894.033,355.603,893.674,354.538,893.674z"/>
					<path fill="#FFFFFF" d="M672.579,893.674h-34.054c-1.066,0-1.773,0.359-1.582,0.802l6.996,16.308
						c0.21,0.488,1.289,0.888,2.408,0.888h35.863c1.119,0,1.814-0.399,1.55-0.888l-8.822-16.308
						C674.7,894.033,673.642,893.674,672.579,893.674z"/>
					<path fill="#FFFFFF" d="M628.564,893.674h-44.33c-1.064,0-1.832,0.359-1.712,0.802l4.384,16.308
						c0.134,0.488,1.148,0.888,2.268,0.888h46.688c1.122,0,1.865-0.399,1.666-0.888l-6.703-16.308
						C630.641,894.033,629.63,893.674,628.564,893.674z"/>
					<path fill="#FFFFFF" d="M573.311,893.674H364.498c-1.064,0-2.063,0.359-2.232,0.802l-6.187,16.308
						c-0.185,0.488,0.573,0.888,1.694,0.888h219.899c1.124,0,1.933-0.399,1.811-0.888l-4.045-16.308
						C575.329,894.033,574.375,893.674,573.311,893.674z"/>
					<path fill="#FFFFFF" d="M362.212,876.53h-32.33c-1.011,0-1.995,0.323-2.198,0.723l-6.299,12.429
						c-0.219,0.434,0.458,0.784,1.513,0.784h33.729c1.055,0,2.048-0.351,2.219-0.784l4.909-12.429
						C363.913,876.854,363.222,876.53,362.212,876.53z"/>
					<path fill="#FFFFFF" d="M366.173,890.466h33.73c1.055,0,2.003-0.351,2.118-0.784l3.308-12.429
						c0.107-0.399-0.626-0.723-1.638-0.723h-32.33c-1.01,0-1.952,0.323-2.104,0.723l-4.697,12.429
						C364.397,890.115,365.119,890.466,366.173,890.466z"/>
					<path fill="#FFFFFF" d="M409.451,890.466h33.73c1.055,0,1.957-0.351,2.017-0.784l1.706-12.429
						c0.055-0.399-0.72-0.723-1.73-0.723h-32.331c-1.01,0-1.91,0.323-2.01,0.723l-3.095,12.429
						C407.628,890.115,408.396,890.466,409.451,890.466z"/>
					<path fill="#FFFFFF" d="M452.727,890.466h33.73c1.054,0,1.913-0.351,1.916-0.784l0.104-12.429
						c0.002-0.399-0.813-0.723-1.824-0.723h-32.331c-1.011,0-1.869,0.323-1.917,0.723l-1.493,12.429
						C450.86,890.115,451.672,890.466,452.727,890.466z"/>
					<path fill="#FFFFFF" d="M496.004,890.466h33.731c1.055,0,1.865-0.351,1.815-0.784l-1.499-12.429
						c-0.05-0.399-0.908-0.723-1.919-0.723h-32.329c-1.012,0-1.828,0.323-1.825,0.723l0.109,12.429
						C494.091,890.115,494.949,890.466,496.004,890.466z"/>
					<path fill="#FFFFFF" d="M569.613,876.53h-32.332c-1.008,0-1.782,0.323-1.728,0.723l1.708,12.429
						c0.061,0.434,0.963,0.784,2.019,0.784h33.73c1.056,0,1.822-0.351,1.714-0.784l-3.101-12.429
						C571.525,876.854,570.625,876.53,569.613,876.53z"/>
					<path fill="#FFFFFF" d="M616.288,890.466c1.055,0,1.776-0.351,1.611-0.784l-4.7-12.429c-0.152-0.399-1.094-0.723-2.105-0.723
						h-32.332c-1.01,0-1.742,0.323-1.635,0.723l3.312,12.429c0.116,0.434,1.063,0.784,2.119,0.784H616.288z"/>
					<path fill="#FFFFFF" d="M625.834,890.466h33.731c1.054,0,1.729-0.351,1.511-0.784l-6.305-12.429
						c-0.203-0.399-1.188-0.723-2.197-0.723h-32.33c-1.012,0-1.702,0.323-1.546,0.723l4.917,12.429
						C623.784,890.115,624.779,890.466,625.834,890.466z"/>
					<path fill="#FFFFFF" d="M669.109,890.466h33.731c1.055,0,1.685-0.351,1.41-0.784l-7.907-12.429
						c-0.253-0.399-1.279-0.723-2.29-0.723h-32.329c-1.011,0-1.659,0.323-1.451,0.723l6.517,12.429
						C667.018,890.115,668.055,890.466,669.109,890.466z"/>
					<path fill="#FFFFFF" d="M344.033,873.195l5.2-11.255c0.169-0.364-0.477-0.657-1.44-0.657h-30.797
						c-0.963,0-1.913,0.293-2.12,0.657l-6.46,11.255c-0.225,0.391,0.406,0.709,1.409,0.709h32.067
						C342.894,873.904,343.854,873.586,344.033,873.195z"/>
					<path fill="#FFFFFF" d="M351.073,873.904h32.067c1.001,0,1.92-0.318,2.05-0.709l3.746-11.255
						c0.121-0.364-0.563-0.657-1.526-0.657h-30.797c-0.963,0-1.874,0.293-2.035,0.657l-5.005,11.255
						C349.399,873.586,350.07,873.904,351.073,873.904z"/>
					<path fill="#FFFFFF" d="M426.346,873.195l2.291-11.255c0.075-0.364-0.647-0.657-1.61-0.657h-30.797
						c-0.963,0-1.836,0.293-1.951,0.657l-3.55,11.255c-0.123,0.391,0.589,0.709,1.592,0.709h32.065
						C425.389,873.904,426.267,873.586,426.346,873.195z"/>
					<path fill="#FFFFFF" d="M467.502,873.195l0.836-11.255c0.026-0.364-0.731-0.657-1.694-0.657h-30.799
						c-0.962,0-1.797,0.293-1.865,0.657l-2.095,11.255c-0.072,0.391,0.681,0.709,1.684,0.709h32.065
						C466.637,873.904,467.474,873.586,467.502,873.195z"/>
					<path fill="#FFFFFF" d="M508.658,873.195l-0.618-11.255c-0.02-0.364-0.816-0.657-1.779-0.657h-30.798
						c-0.963,0-1.759,0.293-1.781,0.657l-0.64,11.255c-0.023,0.391,0.772,0.709,1.774,0.709h32.066
						C507.885,873.904,508.68,873.586,508.658,873.195z"/>
					<path fill="#FFFFFF" d="M549.815,873.195l-2.073-11.255c-0.068-0.364-0.903-0.657-1.866-0.657H515.08
						c-0.963,0-1.724,0.293-1.697,0.657l0.813,11.255c0.029,0.391,0.864,0.709,1.869,0.709h32.066
						C549.133,873.904,549.888,873.586,549.815,873.195z"/>
					<path fill="#FFFFFF" d="M557.311,873.904h32.066c1.004,0,1.717-0.318,1.593-0.709l-3.525-11.255
						c-0.115-0.364-0.987-0.657-1.95-0.657h-30.799c-0.963,0-1.685,0.293-1.61,0.657l2.269,11.255
						C555.432,873.586,556.311,873.904,557.311,873.904z"/>
					<path fill="#FFFFFF" d="M598.559,873.904h32.068c1.002,0,1.672-0.318,1.501-0.709l-4.983-11.255
						c-0.16-0.364-1.069-0.657-2.032-0.657h-30.8c-0.963,0-1.646,0.293-1.527,0.657l3.725,11.255
						C596.64,873.586,597.557,873.904,598.559,873.904z"/>
					<path fill="#FFFFFF" d="M673.283,873.195l-6.438-11.255c-0.207-0.364-1.155-0.657-2.119-0.657h-30.798
						c-0.964,0-1.607,0.293-1.441,0.657l5.18,11.255c0.179,0.391,1.137,0.709,2.141,0.709h32.066
						C672.876,873.904,673.507,873.586,673.283,873.195z"/>
					<path fill="#FFFFFF" d="M714.438,873.195l-7.889-11.255c-0.257-0.364-1.24-0.657-2.203-0.657h-30.8
						c-0.963,0-1.571,0.293-1.356,0.657l6.633,11.255c0.229,0.391,1.23,0.709,2.232,0.709h32.066
						C714.124,873.904,714.713,873.586,714.438,873.195z"/>
					<path fill="#FFFFFF" d="M210.547,858.926h49.735c0.954,0,1.947-0.288,2.214-0.644l7.716-10.242
						c0.25-0.332-0.295-0.599-1.212-0.599h-47.858c-0.919,0-1.913,0.267-2.22,0.599l-9.507,10.242
						C209.085,858.638,209.592,858.926,210.547,858.926z"/>
					<path fill="#FFFFFF" d="M196.73,873.904h62.393c1.002,0,2.045-0.318,2.327-0.709l8.118-11.255
						c0.262-0.364-0.307-0.657-1.27-0.657h-59.926c-0.963,0-2.015,0.293-2.352,0.657l-10.448,11.255
						C195.209,873.586,195.727,873.904,196.73,873.904z"/>
					<path fill="#FFFFFF" d="M181.481,890.434h87.738c1.055,0,2.14-0.352,2.423-0.783l8.145-12.426
						c0.262-0.401-0.345-0.725-1.355-0.725h-84.098c-1.01,0-2.13,0.323-2.501,0.725L180.3,889.65
						C179.898,890.082,180.427,890.434,181.481,890.434z"/>
					<path fill="#FFFFFF" d="M787.563,876.5h-84.099c-1.009,0-1.617,0.323-1.356,0.725l8.129,12.426
						c0.282,0.432,1.368,0.783,2.42,0.783h87.742c1.051,0,1.583-0.352,1.181-0.783l-11.519-12.426
						C789.691,876.823,788.57,876.5,787.563,876.5z"/>
					<path fill="#FFFFFF" d="M774.348,861.365h-59.946c-0.964,0-1.529,0.293-1.267,0.657l8.134,11.262
						c0.282,0.391,1.325,0.709,2.328,0.709h62.411c1.001,0,1.521-0.318,1.156-0.709L776.7,862.022
						C776.361,861.658,775.309,861.365,774.348,861.365z"/>
					<path fill="#FFFFFF" d="M714.964,893.674l-32.78,0.157c-0.845,0.005-1.424,0.779-1.103,1.481
						c3.82,8.352,8.165,15.324,8.165,15.324c0.272,0.487,1.401,0.885,2.522,0.885h36.27c1.12,0,1.763-0.397,1.437-0.885
						c0,0-4.545-6.692-10.023-14.719C718.495,894.52,716.791,893.664,714.964,893.674z"/>
					<path fill="#FFFFFF" d="M801.172,893.303l-33.188,0.08c-0.703,0.002-1.11,0.722-0.7,1.234
						c6.845,8.574,13.293,16.02,13.293,16.02c0.398,0.487,1.63,0.885,2.75,0.885h36.271c1.119,0,1.66-0.397,1.206-0.885
						c0,0-7.064-7.354-15.737-15.81C804.063,893.852,802.65,893.298,801.172,893.303z"/>
					<path fill="#FFFFFF" d="M759.351,892.809h-34.366c-1.062,0-1.542,0.555-1.068,1.242l6.261,9.128l1.356,1.976l3.76,5.482
						c0.334,0.487,1.516,0.885,2.636,0.885h36.268c1.12,0,1.712-0.397,1.322-0.885l-4.38-5.482l-1.578-1.976l-7.294-9.128
						C761.718,893.363,760.413,892.809,759.351,892.809z"/>
				</g>
			</g>
		</g>
	</g>
	<g>
		<path fill="#F5A402" d="M957.59,608.72H656.639c-4.891,0-8.853-3.962-8.853-8.85V461.652c0-4.887,3.962-8.85,8.853-8.85H957.59
			c4.89,0,8.853,3.963,8.853,8.85V599.87C966.442,604.758,962.479,608.72,957.59,608.72z"/>
		<g>
			<g>
				<g>
					<rect x="766.173" y="476.384" fill="#FFFFFF" width="98.452" height="19.261"/>
					<rect x="766.173" y="508.077" fill="#FFFFFF" width="125.535" height="19.261"/>
					<rect x="902.551" y="508.077" fill="#FFFFFF" width="43.953" height="19.261"/>
					<rect x="872.113" y="476.384" fill="#FFFFFF" width="27.427" height="19.261"/>
					<rect x="906.109" y="476.384" fill="#FFFFFF" width="40.395" height="19.261"/>
				</g>
				<g>
					<rect x="766.173" y="539.803" fill="#FFFFFF" width="98.452" height="19.261"/>
					<rect x="766.173" y="571.496" fill="#FFFFFF" width="180.331" height="19.259"/>
					<rect x="872.113" y="539.803" fill="#FFFFFF" width="27.427" height="19.261"/>
					<rect x="906.109" y="539.803" fill="#FFFFFF" width="40.395" height="19.261"/>
				</g>
			</g>
			<g>
				<path fill="#0A1D45" d="M707.244,480.099L707.244,480.099c-17.431,0-31.563,14.128-31.563,31.56v9.949h10.035v-10.954
					c0-11.887,9.639-21.525,21.528-21.525l0,0c11.89,0,21.523,9.638,21.523,21.525v10.954h10.036v-9.949
					C738.804,494.227,724.675,480.099,707.244,480.099z"/>
				<path fill="#0A1D45" d="M738.569,521.607h-62.65c-2.31,0-4.181,1.87-4.181,4.179v51.458c0,2.31,1.871,4.182,4.181,4.182h62.65
					c2.307,0,4.182-1.872,4.182-4.182v-51.458C742.751,523.478,740.876,521.607,738.569,521.607z M714.881,569.458h-15.276
					l1.978-16.764c-2.848-1.858-4.739-5.064-4.739-8.72c0-5.744,4.654-10.401,10.401-10.401s10.401,4.657,10.401,10.401
					c0,3.655-1.89,6.861-4.739,8.72L714.881,569.458z"/>
			</g>
		</g>
	</g>
	<path fill="#E43438" d="M109.79,604.009c-37.709,0-68.278,20.019-68.278,44.712c0,19.406,18.884,35.919,45.271,42.104v29.857
		l27.35-27.35c35.683-1.468,63.933-20.874,63.933-44.612C178.065,624.027,147.497,604.009,109.79,604.009z M79.864,658.189
		c-5.228,0-9.466-4.239-9.466-9.469c0-5.228,4.238-9.466,9.466-9.466s9.466,4.238,9.466,9.466
		C89.33,653.95,85.092,658.189,79.864,658.189z M109.79,658.189c-5.23,0-9.468-4.239-9.468-9.469c0-5.228,4.238-9.466,9.468-9.466
		c5.228,0,9.466,4.238,9.466,9.466C119.256,653.95,115.018,658.189,109.79,658.189z M139.713,658.189
		c-5.228,0-9.466-4.239-9.466-9.469c0-5.228,4.239-9.466,9.466-9.466c5.229,0,9.468,4.238,9.468,9.466
		C149.182,653.95,144.943,658.189,139.713,658.189z"/>
	<circle fill="#A5ACBA" cx="499.393" cy="654.616" r="12.013"/>
</g>
</svg>
