<?xml version="1.0" standalone="no"?>
<svg xmlns:xlink="http://www.w3.org/1999/xlink" id="wave" style="transform:rotate(0deg); transition: 0.3s" viewBox="0 0 1440 490" version="1.1" xmlns="http://www.w3.org/2000/svg"><defs><linearGradient id="sw-gradient-0" x1="0" x2="0" y1="1" y2="0"><stop stop-color="rgba(9.793, 1.022, 109.656, 1)" offset="0%"/><stop stop-color="rgba(2.52, 45.642, 95.995, 1)" offset="100%"/></linearGradient></defs><path style="transform:translate(0, 0px); opacity:1" fill="url(#sw-gradient-0)" d="M0,49L60,57.2C120,65,240,82,360,73.5C480,65,600,33,720,89.8C840,147,960,294,1080,302.2C1200,310,1320,180,1440,106.2C1560,33,1680,16,1800,49C1920,82,2040,163,2160,179.7C2280,196,2400,147,2520,138.8C2640,131,2760,163,2880,196C3000,229,3120,261,3240,302.2C3360,343,3480,392,3600,400.2C3720,408,3840,376,3960,351.2C4080,327,4200,310,4320,253.2C4440,196,4560,98,4680,98C4800,98,4920,196,5040,253.2C5160,310,5280,327,5400,277.7C5520,229,5640,114,5760,89.8C5880,65,6000,131,6120,138.8C6240,147,6360,98,6480,65.3C6600,33,6720,16,6840,49C6960,82,7080,163,7200,163.3C7320,163,7440,82,7560,89.8C7680,98,7800,196,7920,212.3C8040,229,8160,163,8280,114.3C8400,65,8520,33,8580,16.3L8640,0L8640,490L8580,490C8520,490,8400,490,8280,490C8160,490,8040,490,7920,490C7800,490,7680,490,7560,490C7440,490,7320,490,7200,490C7080,490,6960,490,6840,490C6720,490,6600,490,6480,490C6360,490,6240,490,6120,490C6000,490,5880,490,5760,490C5640,490,5520,490,5400,490C5280,490,5160,490,5040,490C4920,490,4800,490,4680,490C4560,490,4440,490,4320,490C4200,490,4080,490,3960,490C3840,490,3720,490,3600,490C3480,490,3360,490,3240,490C3120,490,3000,490,2880,490C2760,490,2640,490,2520,490C2400,490,2280,490,2160,490C2040,490,1920,490,1800,490C1680,490,1560,490,1440,490C1320,490,1200,490,1080,490C960,490,840,490,720,490C600,490,480,490,360,490C240,490,120,490,60,490L0,490Z"/><defs><linearGradient id="sw-gradient-1" x1="0" x2="0" y1="1" y2="0"><stop stop-color="rgba(10.233, 4.225, 132.424, 0.93)" offset="0%"/><stop stop-color="rgba(73.125, 79.593, 146.084, 1)" offset="100%"/></linearGradient></defs><path style="transform:translate(0, 50px); opacity:0.9" fill="url(#sw-gradient-1)" d="M0,441L60,424.7C120,408,240,376,360,367.5C480,359,600,376,720,326.7C840,278,960,163,1080,155.2C1200,147,1320,245,1440,294C1560,343,1680,343,1800,351.2C1920,359,2040,376,2160,334.8C2280,294,2400,196,2520,196C2640,196,2760,294,2880,302.2C3000,310,3120,229,3240,171.5C3360,114,3480,82,3600,106.2C3720,131,3840,212,3960,261.3C4080,310,4200,327,4320,334.8C4440,343,4560,343,4680,302.2C4800,261,4920,180,5040,187.8C5160,196,5280,294,5400,310.3C5520,327,5640,261,5760,261.3C5880,261,6000,327,6120,318.5C6240,310,6360,229,6480,236.8C6600,245,6720,343,6840,343C6960,343,7080,245,7200,245C7320,245,7440,343,7560,367.5C7680,392,7800,343,7920,302.2C8040,261,8160,229,8280,236.8C8400,245,8520,294,8580,318.5L8640,343L8640,490L8580,490C8520,490,8400,490,8280,490C8160,490,8040,490,7920,490C7800,490,7680,490,7560,490C7440,490,7320,490,7200,490C7080,490,6960,490,6840,490C6720,490,6600,490,6480,490C6360,490,6240,490,6120,490C6000,490,5880,490,5760,490C5640,490,5520,490,5400,490C5280,490,5160,490,5040,490C4920,490,4800,490,4680,490C4560,490,4440,490,4320,490C4200,490,4080,490,3960,490C3840,490,3720,490,3600,490C3480,490,3360,490,3240,490C3120,490,3000,490,2880,490C2760,490,2640,490,2520,490C2400,490,2280,490,2160,490C2040,490,1920,490,1800,490C1680,490,1560,490,1440,490C1320,490,1200,490,1080,490C960,490,840,490,720,490C600,490,480,490,360,490C240,490,120,490,60,490L0,490Z"/></svg>