<?xml version="1.0" standalone="no"?>
<svg xmlns:xlink="http://www.w3.org/1999/xlink" id="wave" style="transform:rotate(180deg); transition: 0.3s" viewBox="0 0 1440 290" version="1.1" xmlns="http://www.w3.org/2000/svg"><defs><linearGradient id="sw-gradient-0" x1="0" x2="0" y1="1" y2="0"><stop stop-color="rgba(150.452, 101.726, 255, 1)" offset="0%"/><stop stop-color="rgba(28.75, 0, 250.816, 1)" offset="100%"/></linearGradient></defs><path style="transform:translate(0, 0px); opacity:1" fill="url(#sw-gradient-0)" d="M0,232L60,212.7C120,193,240,155,360,154.7C480,155,600,193,720,178.8C840,164,960,97,1080,58C1200,19,1320,10,1440,9.7C1560,10,1680,19,1800,62.8C1920,106,2040,184,2160,222.3C2280,261,2400,261,2520,256.2C2640,251,2760,242,2880,227.2C3000,213,3120,193,3240,183.7C3360,174,3480,174,3600,154.7C3720,135,3840,97,3960,96.7C4080,97,4200,135,4320,135.3C4440,135,4560,97,4680,106.3C4800,116,4920,174,5040,169.2C5160,164,5280,97,5400,67.7C5520,39,5640,48,5760,72.5C5880,97,6000,135,6120,169.2C6240,203,6360,232,6480,207.8C6600,184,6720,106,6840,72.5C6960,39,7080,48,7200,62.8C7320,77,7440,97,7560,120.8C7680,145,7800,174,7920,193.3C8040,213,8160,222,8280,198.2C8400,174,8520,116,8580,87L8640,58L8640,290L8580,290C8520,290,8400,290,8280,290C8160,290,8040,290,7920,290C7800,290,7680,290,7560,290C7440,290,7320,290,7200,290C7080,290,6960,290,6840,290C6720,290,6600,290,6480,290C6360,290,6240,290,6120,290C6000,290,5880,290,5760,290C5640,290,5520,290,5400,290C5280,290,5160,290,5040,290C4920,290,4800,290,4680,290C4560,290,4440,290,4320,290C4200,290,4080,290,3960,290C3840,290,3720,290,3600,290C3480,290,3360,290,3240,290C3120,290,3000,290,2880,290C2760,290,2640,290,2520,290C2400,290,2280,290,2160,290C2040,290,1920,290,1800,290C1680,290,1560,290,1440,290C1320,290,1200,290,1080,290C960,290,840,290,720,290C600,290,480,290,360,290C240,290,120,290,60,290L0,290Z"/><defs><linearGradient id="sw-gradient-1" x1="0" x2="0" y1="1" y2="0"><stop stop-color="rgba(32.389, 83.929, 175.683, 1)" offset="0%"/><stop stop-color="rgba(30.701, 11, 255, 1)" offset="100%"/></linearGradient></defs><path style="transform:translate(0, 50px); opacity:0.9" fill="url(#sw-gradient-1)" d="M0,87L60,82.2C120,77,240,68,360,87C480,106,600,155,720,178.8C840,203,960,203,1080,183.7C1200,164,1320,126,1440,130.5C1560,135,1680,184,1800,178.8C1920,174,2040,116,2160,91.8C2280,68,2400,77,2520,87C2640,97,2760,106,2880,135.3C3000,164,3120,213,3240,227.2C3360,242,3480,222,3600,178.8C3720,135,3840,68,3960,33.8C4080,0,4200,0,4320,24.2C4440,48,4560,97,4680,120.8C4800,145,4920,145,5040,120.8C5160,97,5280,48,5400,38.7C5520,29,5640,58,5760,82.2C5880,106,6000,126,6120,145C6240,164,6360,184,6480,159.5C6600,135,6720,68,6840,33.8C6960,0,7080,0,7200,33.8C7320,68,7440,135,7560,140.2C7680,145,7800,87,7920,77.3C8040,68,8160,106,8280,130.5C8400,155,8520,164,8580,169.2L8640,174L8640,290L8580,290C8520,290,8400,290,8280,290C8160,290,8040,290,7920,290C7800,290,7680,290,7560,290C7440,290,7320,290,7200,290C7080,290,6960,290,6840,290C6720,290,6600,290,6480,290C6360,290,6240,290,6120,290C6000,290,5880,290,5760,290C5640,290,5520,290,5400,290C5280,290,5160,290,5040,290C4920,290,4800,290,4680,290C4560,290,4440,290,4320,290C4200,290,4080,290,3960,290C3840,290,3720,290,3600,290C3480,290,3360,290,3240,290C3120,290,3000,290,2880,290C2760,290,2640,290,2520,290C2400,290,2280,290,2160,290C2040,290,1920,290,1800,290C1680,290,1560,290,1440,290C1320,290,1200,290,1080,290C960,290,840,290,720,290C600,290,480,290,360,290C240,290,120,290,60,290L0,290Z"/></svg>